<?xml version="1.0" encoding="utf-8"?>
<!-- Generator: Adobe Illustrator 22.0.1, SVG Export Plug-In . SVG Version: 6.00 Build 0)  -->
<svg version="1.1" xmlns="http://www.w3.org/2000/svg" xmlns:xlink="http://www.w3.org/1999/xlink" x="0px" y="0px"
	 viewBox="0 0 100 125" style="enable-background:new 0 0 100 125;" xml:space="preserve">
<style type="text/css">
	.st0{display:none;}
	.st1{display:inline;fill:#FFFFFF;}
	.st2{display:inline;fill:none;stroke:#FFFFFF;stroke-miterlimit:10;}
	.st3{fill:#FFFFFF;stroke:#000000;stroke-miterlimit:10;}
	.st4{fill:none;stroke:#000000;stroke-miterlimit:10;}
	.st5{fill:none;stroke:#000000;stroke-width:0.5;stroke-miterlimit:10;}
</style>
<g id="Calque_1" class="st0">
	<path class="st1" d="M65,42.9L50.2,62.6L32.3,40.9c-0.2,0.3-0.4,0.7-0.6,1l17.8,21.5c0.4,0,0.9,0,1.4,0l15.1-20
		C66,42.9,65.8,42.9,65,42.9z"/>
	<path class="st1" d="M49.8,14.4c0.7,0,1.3,0.1,1.8,0.3l-1.5-2l-1.5,1.8C48.9,14.5,49.3,14.4,49.8,14.4z"/>
	<line class="st2" x1="49.8" y1="62.4" x2="34.9" y2="107.5"/>
	<line class="st2" x1="49.9" y1="63.2" x2="45.6" y2="111.2"/>
	<line class="st2" x1="50.5" y1="63.2" x2="54.8" y2="110.4"/>
	<line class="st2" x1="50.8" y1="63.3" x2="66" y2="106.6"/>
	<line class="st2" x1="50" y1="13.8" x2="24.9" y2="32.5"/>
	<line class="st2" x1="50" y1="13.8" x2="74.5" y2="32.6"/>
	<line class="st2" x1="25" y1="32.2" x2="21.9" y2="42.2"/>
	<line class="st2" x1="74.3" y1="32.4" x2="78.9" y2="42.3"/>
	<line class="st2" x1="22" y1="41.9" x2="26.9" y2="38.4"/>
	<line class="st2" x1="31.3" y1="42.6" x2="26.3" y2="38.4"/>
	<line class="st2" x1="30.8" y1="42.7" x2="35.9" y2="38.9"/>
	<line class="st2" x1="40.2" y1="43" x2="35.3" y2="38.8"/>
	<line class="st2" x1="39.6" y1="43" x2="44.7" y2="39.2"/>
	<line class="st2" x1="49" y1="43.4" x2="44.1" y2="39.2"/>
	<line class="st2" x1="48.3" y1="43.3" x2="53.5" y2="39.5"/>
	<line class="st2" x1="57.8" y1="43.7" x2="52.9" y2="39.6"/>
	<line class="st2" x1="57.2" y1="43.7" x2="62.3" y2="40"/>
	<line class="st2" x1="66.6" y1="44.1" x2="61.7" y2="39.9"/>
	<line class="st2" x1="65.9" y1="44.1" x2="71.1" y2="40.3"/>
	<line class="st2" x1="75.4" y1="44.5" x2="70.5" y2="40.3"/>
	<line class="st2" x1="74.8" y1="44.5" x2="78.5" y2="41.9"/>
</g>
<g id="Calque_2">
	<rect x="10.1" y="11" class="st3" width="69.9" height="38"/>
	<rect x="14.9" y="49" class="st3" width="10.8" height="4.8"/>
	<rect x="64.4" y="49" class="st3" width="10.8" height="4.8"/>
	<line class="st4" x1="8.4" y1="5.9" x2="78.3" y2="5.9"/>
	<path d="M62.9,29.6l-4.7,2.1l1.1-5.3c-0.1,0-0.1,0-0.2,0L58,31.8l0.2,0.1l4.9-2.2C63,29.7,63,29.7,62.9,29.6z"/>
	<path d="M57.9,32c-0.1-0.1-0.2-0.2-0.3-0.3l0,0L57.9,32L57.9,32z"/>
	<line class="st5" x1="58.1" y1="31.7" x2="49.5" y2="37.1"/>
	<line class="st5" x1="58" y1="31.8" x2="50.7" y2="39.2"/>
	<line class="st5" x1="58.1" y1="31.9" x2="52.4" y2="40.3"/>
	<line class="st5" x1="58.2" y1="31.9" x2="54.8" y2="41.2"/>
	<line class="st5" x1="64.8" y1="23.6" x2="58.1" y2="23.2"/>
	<line class="st5" x1="64.8" y1="23.6" x2="66.3" y2="30.1"/>
	<line class="st5" x1="58.1" y1="23.2" x2="56.1" y2="24.5"/>
	<line class="st5" x1="66.3" y1="30" x2="65.6" y2="32.4"/>
	<path class="st5" d="M56.1,24.5c0.6,0,1.2,0,1.9-0.1c0.1,0.6,0.2,1.3,0.4,1.9c0.7,0,1.3,0,2,0.1c0.2,0.7,0.3,1.3,0.5,2
		c0.7,0,1.3,0,2,0c0.1,0.7,0.3,1.3,0.4,2c0.7,0,1.3,0,2,0c0.1,0.7,0.3,1.3,0.4,2"/>
</g>
</svg>
