<svg xmlns="http://www.w3.org/2000/svg" xmlns:xlink="http://www.w3.org/1999/xlink" version="1.1" x="0px" y="0px" viewBox="0 0 100 125" enable-background="new 0 0 100 100" xml:space="preserve"><path d="M91.258,57.325c-2.21,0-4.008,1.798-4.008,4.009c0,2.21,1.798,4.008,4.008,4.008c2.211,0,4.009-1.798,4.009-4.008  C95.267,59.123,93.469,57.325,91.258,57.325z M91.258,63.342c-1.107,0-2.008-0.9-2.008-2.008s0.9-2.009,2.008-2.009  s2.009,0.901,2.009,2.009S92.365,63.342,91.258,63.342z"/><path d="M21.258,50.325c-2.21,0-4.008,1.798-4.008,4.009c0,2.21,1.798,4.008,4.008,4.008c2.211,0,4.009-1.798,4.009-4.008  C25.267,52.123,23.469,50.325,21.258,50.325z M21.258,56.342c-1.107,0-2.008-0.9-2.008-2.008s0.9-2.009,2.008-2.009  s2.009,0.901,2.009,2.009S22.365,56.342,21.258,56.342z"/><path d="M13.767,58.325c-1.939,0-3.517,1.577-3.517,3.517s1.577,3.517,3.517,3.517c1.938,0,3.516-1.577,3.516-3.517  S15.705,58.325,13.767,58.325z M13.767,63.358c-0.836,0-1.517-0.681-1.517-1.517s0.681-1.517,1.517-1.517s1.516,0.681,1.516,1.517  S14.603,63.358,13.767,63.358z"/><path d="M91.869,49.985c0-1.495-1.217-2.712-2.713-2.712s-2.713,1.217-2.713,2.712c0,1.496,1.217,2.713,2.713,2.713  S91.869,51.481,91.869,49.985z M88.443,49.985c0-0.393,0.319-0.712,0.713-0.712s0.713,0.319,0.713,0.712  c0,0.394-0.319,0.713-0.713,0.713S88.443,50.379,88.443,49.985z"/><path d="M76.156,70.273c-1.496,0-2.713,1.217-2.713,2.712c0,1.496,1.217,2.713,2.713,2.713s2.713-1.217,2.713-2.713  C78.869,71.49,77.652,70.273,76.156,70.273z M76.156,73.698c-0.394,0-0.713-0.319-0.713-0.713c0-0.393,0.319-0.712,0.713-0.712  s0.713,0.319,0.713,0.712C76.869,73.379,76.55,73.698,76.156,73.698z"/><circle cx="95.722" cy="45.551" r="1.278"/><circle cx="80.722" cy="79.551" r="1.278"/><path d="M28.278,73.644c-0.704-0.181-1.432-0.071-2.055,0.299c-0.622,0.37-1.063,0.962-1.241,1.664  c-0.178,0.703-0.072,1.433,0.299,2.055c0.37,0.622,0.962,1.063,1.664,1.241c0.223,0.056,0.447,0.084,0.671,0.084  c0.482,0,0.958-0.13,1.384-0.383c0.623-0.371,1.063-0.962,1.241-1.664c0.178-0.703,0.072-1.433-0.299-2.055  C29.571,74.262,28.98,73.821,28.278,73.644z M27.977,76.885c-0.164,0.098-0.358,0.126-0.54,0.078  c-0.185-0.046-0.34-0.162-0.437-0.325c-0.098-0.164-0.126-0.355-0.079-0.54s0.162-0.34,0.326-0.437  c0.114-0.068,0.239-0.101,0.363-0.101c0.243,0,0.48,0.124,0.613,0.348C28.425,76.246,28.313,76.684,27.977,76.885z"/><circle cx="30.983" cy="69.103" r="1.278"/><path d="M13.869,46.985c0-1.495-1.217-2.712-2.713-2.712s-2.713,1.217-2.713,2.712c0,1.496,1.217,2.713,2.713,2.713  S13.869,48.481,13.869,46.985z M10.443,46.985c0-0.393,0.319-0.712,0.713-0.712s0.713,0.319,0.713,0.712  c0,0.394-0.319,0.713-0.713,0.713S10.443,47.379,10.443,46.985z"/><circle cx="14.722" cy="36.551" r="1.278"/><path d="M81.919,31.805C81.19,16.54,68.72,4.886,53,4.886S24.438,17.227,24.081,31.663c-0.08,3.228,2.176,5.814,4.908,6.567  c1.027,2.238,3.191,3.629,5.302,4.966c2.547,1.613,4.747,3.008,4.688,5.575c-0.038,1.706-0.796,2.833-1.755,4.261  c-0.991,1.476-2.114,3.147-2.687,5.805c-0.731,3.395,1.232,6.199,3.131,8.913c1.267,1.809,2.575,3.679,3.051,5.683  c0.494,2.085-0.458,3.59-1.56,5.333c-1.618,2.559-3.452,5.459-0.08,10.129c0.195,0.271,0.501,0.414,0.812,0.414  c0.203,0,0.407-0.062,0.585-0.189c0.447-0.323,0.548-0.948,0.225-1.396c-2.58-3.572-1.376-5.478,0.149-7.889  c1.173-1.855,2.503-3.959,1.814-6.862c-0.563-2.377-1.983-4.406-3.357-6.369c-1.804-2.577-3.362-4.804-2.814-7.344  c0.491-2.282,1.457-3.721,2.392-5.111c1.05-1.563,2.042-3.04,2.095-5.33c0.085-3.698-2.944-5.617-5.617-7.311  c-1.52-0.964-2.976-1.888-3.914-3.058c1.563-0.123,2.949-0.697,4.016-1.673c1.211,0.921,2.634,1.493,4.148,1.654  c0.671,3.057,2.616,4.529,4.364,5.822c1.741,1.287,3.116,2.304,3.319,4.693c0.267,3.146-0.962,4.775-2.262,6.501  c-1.102,1.462-2.241,2.975-2.375,5.303c-0.205,3.582,1.446,5.643,2.903,7.461c1.333,1.663,2.593,3.234,2.593,5.979  c0,4.352-2.104,6.331-3.961,8.077l-0.492,0.466c-0.398,0.383-0.411,1.016-0.029,1.414c0.196,0.205,0.459,0.308,0.722,0.308  c0.249,0,0.498-0.093,0.692-0.278l0.478-0.452c1.938-1.822,4.591-4.318,4.591-9.534c0-3.448-1.61-5.458-3.032-7.23  c-1.41-1.761-2.629-3.28-2.468-6.095c0.1-1.724,0.969-2.878,1.977-4.215c1.4-1.858,2.988-3.966,2.656-7.874  c-0.278-3.291-2.32-4.8-4.122-6.132c-1.503-1.111-2.931-2.169-3.521-4.25c1.711-0.235,3.306-0.989,4.574-2.174  c1.436,1.16,3.142,1.889,4.957,2.147c0.147,3.552,1.317,5.122,2.367,6.675c0.946,1.398,1.764,2.606,1.818,5.154  c0.058,2.628-0.91,4.844-1.845,6.986c-0.86,1.972-1.673,3.834-1.673,5.898c0,4.393,1.329,6.478,2.614,8.493  c1.186,1.86,2.306,3.617,2.267,7.452c-0.033,3.227-1.272,4.814-2.471,6.351c-1.656,2.123-3.369,4.317-0.769,9.789  c0.171,0.359,0.53,0.57,0.904,0.57c0.144,0,0.29-0.031,0.429-0.096c0.498-0.237,0.711-0.834,0.474-1.333  c-2.07-4.355-1.032-5.685,0.538-7.698c1.271-1.629,2.854-3.655,2.895-7.559c0.045-4.43-1.289-6.52-2.58-8.544  c-1.184-1.855-2.301-3.601-2.301-7.411c0-1.647,0.731-3.31,1.506-5.084c0.974-2.232,2.078-4.733,2.012-7.801  c-0.068-3.138-1.133-4.654-2.162-6.176c-0.965-1.427-1.872-2.706-2.02-5.58c2.259-0.119,4.371-0.95,6.077-2.409  c1.203,1.2,2.721,1.987,4.378,2.288c-0.395,1.858-1.071,2.831-1.782,3.848c-0.949,1.354-1.931,2.756-2.22,5.908  c-0.291,3.183,1.053,5.159,2.239,6.903c1.142,1.679,2.127,3.128,1.901,5.597c-0.203,2.227-1.099,3.941-1.964,5.6  c-1.238,2.374-2.52,4.828-1.706,8.518c0.103,0.468,0.517,0.785,0.976,0.785c0.071,0,0.144-0.008,0.216-0.023  c0.54-0.119,0.881-0.652,0.762-1.191c-0.657-2.979,0.354-4.918,1.525-7.162c0.911-1.745,1.943-3.724,2.184-6.344  c0.291-3.183-1.054-5.159-2.239-6.903c-1.142-1.678-2.128-3.127-1.901-5.597c0.24-2.622,0.993-3.697,1.865-4.943  c0.797-1.138,1.687-2.427,2.154-4.87c1.72-0.102,3.351-0.722,4.7-1.794c1.012,0.995,2.295,1.592,3.77,1.763  c-0.914,1.205-2.151,2.116-3.358,3.005c-2.179,1.604-4.432,3.264-4.217,6.458c0.136,2.015,1.247,3.697,2.321,5.323  c1.348,2.042,2.622,3.971,2.132,6.545c-0.304,1.596-1.325,3.037-2.407,4.563c-1.772,2.501-3.782,5.336-3.441,9.734  c0.143,1.828,0.823,3.139,1.424,4.294c1.129,2.174,2.104,4.051-0.874,9.482c-0.266,0.483-0.088,1.092,0.396,1.357  c0.152,0.084,0.317,0.123,0.479,0.123c0.354,0,0.696-0.188,0.878-0.52c3.492-6.367,2.172-8.908,0.895-11.365  c-0.563-1.082-1.094-2.105-1.204-3.526c-0.285-3.678,1.425-6.09,3.079-8.423c1.158-1.634,2.355-3.323,2.74-5.346  c0.642-3.373-0.989-5.842-2.429-8.021c-0.974-1.476-1.894-2.868-1.993-4.356c-0.135-1.998,1.207-3.093,3.406-4.713  c1.638-1.206,3.475-2.576,4.595-4.737C79.925,37.688,82.042,34.375,81.919,31.805z M75.879,36.523  c-0.263,0.054-0.723,0.095-0.874,0.095c-1.508,0-2.701-0.691-3.589-1.743c-0.64-0.757-1.458-0.567-1.805-0.229  c-1.208,1.182-2.795,1.833-4.471,1.833c-1.979,0-3.814-0.904-5.034-2.481c-0.175-0.227-0.481-0.397-0.765-0.404  c-0.265-0.006-0.565,0.132-0.75,0.327c-1.568,1.65-3.688,2.559-5.967,2.559c-2.164,0-4.21-0.839-5.759-2.36  c-0.01-0.01-0.332-0.374-0.771-0.343c-0.258,0.018-0.529,0.212-0.696,0.413c-1.222,1.455-3.006,2.29-4.896,2.29  c-1.677,0-3.261-0.65-4.458-1.83c-0.395-0.389-1.027-0.384-1.414,0.01c-0.115,0.117-1.6,1.959-3.824,1.959  c-2.62,0-4.753-2.557-4.802-4.548C26.5,18.083,38.365,6.956,53,6.956S79.259,17.72,79.921,31.901  C80.021,34.042,78.109,36.064,75.879,36.523z M71.694,30.692c0.019,0.834-0.601,1.497-1.383,1.483  c-0.782-0.015-1.432-0.646-1.449-1.41c-0.016-0.764,0.605-1.428,1.37-1.482C71.027,29.227,71.676,29.858,71.694,30.692z   M68.51,25.878c-0.102-0.69,0.343-1.369,1.031-1.527c0.71-0.162,1.411,0.317,1.526,1.077c0.128,0.757-0.346,1.443-1.058,1.532  C69.299,27.049,68.626,26.565,68.51,25.878z M68.87,21.867c-0.624,0.194-1.283-0.138-1.483-0.736  c-0.239-0.581,0.054-1.264,0.651-1.524c0.597-0.26,1.298,0.056,1.562,0.706C69.824,20.977,69.49,21.675,68.87,21.867z   M67.128,15.582c0.338,0.535,0.168,1.218-0.338,1.503c-0.515,0.29-1.148,0.119-1.449-0.358c-0.316-0.466-0.187-1.125,0.287-1.471  C66.101,14.911,66.774,15.056,67.128,15.582z M63.578,11.55c0.428,0.384,0.456,1.003,0.08,1.372c-0.368,0.36-0.957,0.376-1.32,0.049  c-0.37-0.318-0.413-0.873-0.134-1.309C62.488,11.22,63.143,11.173,63.578,11.55z M60.322,30.945  c-0.09,0.798-0.791,1.348-1.564,1.229s-1.336-0.795-1.255-1.511c0.099-0.713,0.721-1.276,1.516-1.233  C59.786,29.471,60.429,30.148,60.322,30.945z M60.363,25.906c0.041,0.72-0.573,1.307-1.281,1.302  c-0.726-0.005-1.275-0.55-1.314-1.225c-0.027-0.674,0.532-1.256,1.247-1.301S60.335,25.185,60.363,25.906z M58.52,19.958  c0.642-0.097,1.247,0.344,1.331,0.988c0.074,0.646-0.392,1.224-1.041,1.29s-1.231-0.378-1.3-0.992  C57.43,20.631,57.874,20.056,58.52,19.958z M58.073,17.311c-0.576,0.109-1.131-0.248-1.24-0.797  c-0.116-0.547,0.245-1.095,0.818-1.226c0.57-0.13,1.14,0.224,1.26,0.793C59.024,16.652,58.649,17.202,58.073,17.311z M56.948,12.46  c-0.504,0.138-1.015-0.142-1.156-0.616c-0.138-0.477,0.142-0.977,0.635-1.144c0.493-0.168,1.03,0.114,1.174,0.611  C57.749,11.808,57.449,12.323,56.948,12.46z M37.597,30.704c0.016,0.758-0.607,1.416-1.387,1.471  c-0.781,0.055-1.429-0.586-1.446-1.431c-0.03-0.845,0.62-1.504,1.416-1.47C36.946,29.307,37.568,29.946,37.597,30.704z   M37.829,25.841c-0.101,0.685-0.763,1.177-1.475,1.099c-0.713-0.078-1.2-0.764-1.085-1.532c0.092-0.772,0.851-1.248,1.536-1.088  C37.517,24.486,37.907,25.152,37.829,25.841z M38.997,21.124c-0.258,0.574-0.873,0.914-1.506,0.709  c-0.607-0.196-0.979-0.919-0.693-1.566c0.267-0.654,0.965-0.962,1.557-0.69C38.947,19.849,39.235,20.542,38.997,21.124z   M40.876,15.27c0.461,0.348,0.575,1.01,0.26,1.482c-0.331,0.462-0.956,0.628-1.464,0.327c-0.501-0.296-0.667-0.991-0.3-1.508  C39.724,15.043,40.401,14.911,40.876,15.27z M44.316,11.662c0.295,0.428,0.255,0.987-0.116,1.32  c-0.365,0.336-0.961,0.321-1.329-0.04c-0.375-0.368-0.346-0.982,0.074-1.368C43.367,11.194,44.019,11.231,44.316,11.662z   M49.017,30.664c0.081,0.716-0.481,1.392-1.255,1.511c-0.773,0.119-1.475-0.432-1.564-1.229c-0.107-0.797,0.536-1.474,1.303-1.515  C48.297,29.387,48.918,29.95,49.017,30.664z M46.156,25.906c0.029-0.721,0.632-1.269,1.348-1.224  c0.716,0.045,1.274,0.628,1.247,1.301c-0.04,0.674-0.588,1.22-1.314,1.225C46.73,27.213,46.116,26.626,46.156,25.906z   M46.669,20.947c0.084-0.644,0.688-1.085,1.331-0.988c0.646,0.097,1.09,0.672,1.01,1.286c-0.07,0.614-0.652,1.058-1.3,0.992  C47.062,22.17,46.596,21.593,46.669,20.947z M49.687,16.515c-0.109,0.549-0.664,0.905-1.24,0.797s-0.951-0.66-0.838-1.23  c0.12-0.569,0.69-0.923,1.26-0.793C49.442,15.419,49.803,15.967,49.687,16.515z M50.728,11.844c-0.14,0.474-0.651,0.754-1.156,0.616  c-0.501-0.137-0.801-0.652-0.653-1.15c0.144-0.497,0.681-0.778,1.174-0.611C50.586,10.867,50.866,11.366,50.728,11.844z"/><text x="0" y="115" fill="#000000" font-size="5px" font-weight="bold" font-family="'Helvetica Neue', Helvetica, Arial-Unicode, Arial, Sans-serif">Created by  Laymik</text><text x="0" y="120" fill="#000000" font-size="5px" font-weight="bold" font-family="'Helvetica Neue', Helvetica, Arial-Unicode, Arial, Sans-serif">from the Noun Project</text></svg>