<svg xmlns="http://www.w3.org/2000/svg" xmlns:xlink="http://www.w3.org/1999/xlink" version="1.1" x="0px" y="0px" viewBox="0 0 100 125" enable-background="new 0 0 100 100" xml:space="preserve"><path d="M53.996,92.06c0.203,0.035,0.469,0.07,0.73,0.068c0.532,0.008,1.012-0.123,1.012-0.123  c-0.004,0.003-0.054-0.069-0.111-0.152c18.329-2.725,32.76-17.527,34.936-36.027c0.216,0.07,0.423,0.092,0.571,0.048  c0.184-0.041,0.379-0.111,0.581-0.227c0,0,0.449-0.263,0.987-0.397c0.531-0.149,1.13-0.156,1.13-0.156  c0.029-0.029-0.776-0.746-0.791-0.729c-0.505-0.384-1.18-0.4-1.571-0.122l-0.798,0.591c0.119-1.273,0.187-2.56,0.187-3.863  c0-0.911-0.04-1.812-0.099-2.709l0.605-0.225c0.215-0.079,0.422-0.219,0.635-0.435c0.191-0.205,0.301-0.457,0.324-0.703  c0,0,0.058-0.565-0.035-1.086c-0.078-0.525-0.289-0.976-0.289-0.976c0.018,0.019-0.419,0.388-0.419,0.388  c-0.263,0.199-0.424,0.527-0.516,0.997L90.72,47.75C89.203,28.178,74.004,12.393,54.695,9.97c-0.073-0.093-0.329-0.434-0.521-0.872  c-0.232-0.499-0.34-1.087-0.34-1.087c-0.021-0.015-0.614,0.878-0.584,0.896c-0.168,0.338-0.197,0.631-0.149,0.893  c-1.18-0.102-2.372-0.165-3.578-0.165c-0.97,0-1.929,0.046-2.882,0.112c-0.122-0.073-0.253-0.136-0.402-0.181  c0,0-0.549-0.144-1.074-0.14c-0.532-0.008-1.012,0.123-1.012,0.123c0.008-0.005,0.199,0.276,0.278,0.41  C25.746,12.267,10.892,27.083,8.528,45.75c-0.115,0.04-0.232,0.089-0.352,0.158c0,0-0.449,0.263-0.987,0.397  c-0.531,0.149-1.13,0.156-1.13,0.156C6.03,46.489,6.836,47.207,6.85,47.19c0.481,0.365,1.108,0.389,1.505,0.151  c-0.105,1.197-0.169,2.405-0.169,3.629c0,0.899,0.039,1.79,0.096,2.675c-0.13,0.079-0.26,0.174-0.391,0.307  c-0.19,0.205-0.301,0.457-0.324,0.703c0,0-0.058,0.565,0.035,1.086c0.078,0.525,0.289,0.976,0.289,0.976  c-0.018-0.019,0.419-0.388,0.419-0.388c0.083-0.063,0.139-0.162,0.203-0.25c2.365,19.09,17.786,34.184,37.029,36.032  c0.06,0.106,0.12,0.222,0.174,0.345c0.232,0.499,0.34,1.087,0.34,1.087c0.021,0.015,0.614-0.878,0.584-0.896  c0.077-0.156,0.126-0.302,0.152-0.441c0.903,0.059,1.812,0.1,2.73,0.1C51.034,92.306,52.526,92.219,53.996,92.06z M47.559,90.256  l0.268-0.739c0.117-0.323,0.107-0.67-0.011-0.982c0.63-0.159,1.099-0.725,1.099-1.404c0-0.802-0.651-1.453-1.453-1.453  c-0.803,0-1.453,0.651-1.453,1.453c0,0.068,0.011,0.133,0.02,0.198c-0.123,0.427-0.048,0.887,0.22,1.244l1.268,1.683  c-0.596-0.03-1.186-0.078-1.774-0.135l-0.499-0.662l-0.212,0.584c-7.508-0.857-14.376-3.836-19.997-8.321l10.688-10.688  c3.926,2.709,8.68,4.3,13.8,4.3c5.366,0,10.329-1.748,14.359-4.698l10.663,10.664c-6.804,5.624-15.525,9.007-25.022,9.007  C48.864,90.306,48.21,90.288,47.559,90.256z M10.445,55.416l0.482-0.179c0.367-0.136,0.649-0.42,0.801-0.771  c0.26,0.242,0.605,0.393,0.988,0.393c0.803,0,1.453-0.651,1.453-1.453c0-0.802-0.651-1.453-1.453-1.453  c-0.363,0-0.692,0.138-0.946,0.359l-0.254,0.094c-0.45,0.167-0.785,0.55-0.89,1.017l-0.265,1.18  c-0.11-1.197-0.174-2.407-0.174-3.632c0-0.777,0.029-1.548,0.074-2.314c0.351,0.078,0.713,0.022,1.023-0.16  c0.098,0.707,0.699,1.254,1.433,1.254c0.803,0,1.453-0.651,1.453-1.453c0-0.803-0.651-1.453-1.453-1.453  c-0.101,0-0.199,0.01-0.294,0.03l-0.052-0.019c-0.45-0.167-0.953-0.097-1.338,0.188l-0.687,0.509  c0.707-8.163,3.908-15.624,8.849-21.602l10.663,10.663c-2.951,4.03-4.698,8.993-4.698,14.359c0,5.384,1.759,10.363,4.728,14.4  L19.226,76.03C14.475,70.296,11.324,63.195,10.445,55.416z M27.159,50.97c0-12.331,10.032-22.362,22.363-22.362  S71.885,38.639,71.885,50.97S61.854,73.333,49.522,73.333S27.159,63.301,27.159,50.97z M88.599,46.526  c-0.26,0.199-0.451,0.48-0.525,0.808l-0.473,2.102l0.773-0.288c0.161-0.06,0.3-0.155,0.426-0.264  c0.036,0.691,0.056,1.386,0.056,2.086c0,0.665-0.018,1.326-0.05,1.982c-0.115,0.045-0.226,0.103-0.327,0.178l-0.759,0.562  c0.019-0.093,0.029-0.189,0.029-0.287c0-0.802-0.651-1.453-1.453-1.453c-0.803,0-1.453,0.651-1.453,1.453  c0,0.803,0.651,1.453,1.453,1.453c0.326,0,0.623-0.111,0.866-0.292l0.359,0.134c0.385,0.143,0.806,0.102,1.161-0.089  c-0.725,7.856-3.77,15.046-8.441,20.885L69.556,64.81c2.726-3.934,4.329-8.702,4.329-13.84c0-5.12-1.591-9.873-4.299-13.799  l10.687-10.688C84.767,32.115,87.749,39,88.599,46.526z M76.055,79.981L65.454,69.378c1.042-0.903,2.011-1.889,2.888-2.955  L78.95,77.032C78.035,78.063,77.072,79.05,76.055,79.981z M78.982,24.946l-10.609,10.61c-0.875-1.068-1.841-2.056-2.882-2.962  l10.6-10.601C77.106,22.925,78.069,23.913,78.982,24.946z M52.173,11.734l-0.11,0.302c-0.139,0.382-0.096,0.798,0.092,1.149  c-0.598,0.18-1.037,0.728-1.037,1.385c0,0.802,0.651,1.453,1.453,1.453c0.802,0,1.453-0.651,1.453-1.453  c0-0.2-0.041-0.391-0.114-0.565c0.044-0.361-0.047-0.729-0.27-1.025l-0.908-1.205c0.61,0.05,1.215,0.113,1.816,0.19l0.096,0.128  l0.04-0.111c7.497,0.988,14.339,4.086,19.895,8.69l-10.659,10.66c-4.037-2.969-9.016-4.727-14.4-4.727  c-5.138,0-9.906,1.603-13.84,4.329L24.996,20.25c6.731-5.385,15.256-8.616,24.526-8.616C50.414,11.635,51.296,11.675,52.173,11.734z   M23.461,21.543l10.608,10.608c-1.066,0.877-2.052,1.846-2.955,2.889L20.511,24.437C21.442,23.42,22.429,22.457,23.461,21.543z   M20.546,77.539l10.601-10.6c0.906,1.041,1.894,2.007,2.961,2.881l-10.61,10.61C22.465,79.517,21.477,78.554,20.546,77.539z   M86.297,49.749c0.802,0,1.453-0.651,1.453-1.453c0-0.803-0.651-1.453-1.453-1.453c-0.803,0-1.453,0.651-1.453,1.453  C84.844,49.098,85.494,49.749,86.297,49.749z M45.526,12.871c0.137,0.377,0.428,0.666,0.79,0.817  c-0.189,0.245-0.307,0.549-0.307,0.883c0,0.802,0.651,1.453,1.453,1.453c0.802,0,1.453-0.651,1.453-1.453  c0-0.488-0.242-0.917-0.611-1.18c-0.18-0.402-0.53-0.704-0.962-0.805l-2.098-0.49L45.526,12.871z M42.812,8.63  c0.31,0.098,0.686,0.03,1.103-0.168c0,0,0.462-0.237,1.006-0.346c0.539-0.125,1.136-0.105,1.136-0.105  c0.025-0.022-0.732-0.783-0.752-0.761c-0.486-0.403-1.142-0.469-1.569-0.202c0,0-0.493,0.284-0.859,0.662  c-0.379,0.367-0.617,0.804-0.617,0.804S42.817,8.605,42.812,8.63z M41.315,7.935c0,0,0.048-0.123,0.12-0.309  c0.073-0.178,0.188-0.433,0.336-0.66c0.285-0.48,0.723-0.89,0.723-0.89c0.001-0.025-1.087-0.026-1.084,0.015  c-0.342,0.039-0.539,0.157-0.723,0.31c-0.183,0.155-0.327,0.352-0.415,0.577c0,0-0.192,0.506-0.384,1.013  C39.706,8.496,39.526,9,39.526,9l0.782-0.178C40.763,8.719,41.138,8.386,41.315,7.935z M38.246,8.631c0,0,0.173-0.502,0.346-1.004  c0.185-0.505,0.369-1.01,0.369-1.01l-0.827,0.188c-0.486,0.095-0.855,0.489-0.999,0.945c0,0-0.155,0.52-0.31,1.04  c-0.143,0.517-0.286,1.033-0.286,1.033l0.766-0.236C37.751,9.453,38.099,9.083,38.246,8.631z M35.237,9.553  c0,0,0.136-0.514,0.272-1.028c0.147-0.518,0.295-1.036,0.295-1.036l-0.81,0.25c-0.476,0.133-0.823,0.534-0.93,1.009  c0,0-0.116,0.531-0.233,1.061c-0.105,0.526-0.21,1.053-0.21,1.053l0.747-0.293C34.802,10.405,35.116,9.996,35.237,9.553z   M32.302,10.689c0,0,0.098-0.523,0.196-1.047c0.109-0.528,0.218-1.056,0.218-1.056l-0.789,0.31c-0.464,0.17-0.788,0.58-0.857,1.069  c0,0-0.078,0.538-0.155,1.076c-0.067,0.533-0.133,1.066-0.133,1.066l0.723-0.348C31.925,11.559,32.214,11.14,32.302,10.689z   M29.457,12.033c0,0,0.06-0.53,0.119-1.059c0.07-0.535,0.141-1.07,0.141-1.07l-0.764,0.368c-0.447,0.21-0.747,0.63-0.779,1.124  c0,0-0.038,0.543-0.076,1.086c-0.028,0.537-0.056,1.074-0.056,1.074l0.695-0.401C29.139,12.918,29.403,12.491,29.457,12.033z   M25.413,15.196l0.664-0.451c0.381-0.27,0.619-0.706,0.639-1.168c0,0,0.021-0.533,0.042-1.066c0.031-0.539,0.063-1.078,0.063-1.078  l-0.734,0.424c-0.428,0.246-0.702,0.678-0.698,1.174c0,0,0.001,0.545,0.002,1.089C25.402,14.658,25.413,15.196,25.413,15.196z   M22.908,17.022l0.629-0.498c0.359-0.299,0.571-0.743,0.556-1.208c0,0-0.017-0.534-0.035-1.067c-0.008-0.54-0.015-1.081-0.015-1.081  l-0.701,0.476c-0.406,0.28-0.654,0.723-0.614,1.219c0,0,0.04,0.543,0.081,1.087C22.858,16.485,22.908,17.022,22.908,17.022z   M20.363,17.959c0.088,0.531,0.177,1.063,0.177,1.063l0.591-0.542c0.335-0.325,0.52-0.777,0.47-1.243c0,0-0.056-0.531-0.112-1.063  c-0.047-0.539-0.093-1.078-0.093-1.078l-0.665,0.526c-0.383,0.312-0.603,0.765-0.527,1.258  C20.204,16.88,20.284,17.419,20.363,17.959z M18.068,20.138c0.126,0.524,0.253,1.048,0.253,1.048l0.55-0.584  c0.31-0.349,0.468-0.808,0.381-1.272c0,0-0.094-0.526-0.188-1.052c-0.085-0.534-0.17-1.069-0.17-1.069l-0.625,0.573  c-0.36,0.338-0.544,0.81-0.437,1.291C17.832,19.072,17.95,19.605,18.068,20.138z M15.934,22.475  c0.164,0.514,0.327,1.028,0.327,1.028l0.506-0.622c0.283-0.371,0.413-0.835,0.291-1.294c0,0-0.131-0.518-0.263-1.037  c-0.123-0.527-0.247-1.054-0.247-1.054l-0.582,0.617c-0.336,0.362-0.481,0.85-0.346,1.317  C15.622,21.429,15.778,21.952,15.934,22.475z M13.972,24.959c0.2,0.501,0.401,1.002,0.401,1.002l0.46-0.658  c0.255-0.391,0.358-0.859,0.2-1.31c0,0-0.168-0.508-0.337-1.016c-0.161-0.517-0.322-1.034-0.322-1.034l-0.535,0.657  c-0.31,0.384-0.415,0.885-0.253,1.337C13.586,23.937,13.779,24.448,13.972,24.959z M12.193,27.577  c0.236,0.486,0.472,0.971,0.472,0.971l0.41-0.69c0.225-0.409,0.301-0.878,0.108-1.319c0,0-0.205-0.495-0.409-0.99  c-0.198-0.505-0.396-1.009-0.396-1.009l-0.486,0.695c-0.283,0.405-0.346,0.916-0.159,1.35  C11.734,26.585,11.964,27.081,12.193,27.577z M10.607,30.316c0.271,0.468,0.542,0.935,0.542,0.935l0.358-0.718  c0.202-0.421,0.24-0.896,0.016-1.322c0,0-0.24-0.479-0.48-0.958c-0.234-0.489-0.468-0.979-0.468-0.979l-0.434,0.728  c-0.253,0.424-0.277,0.939-0.061,1.359C10.08,29.361,10.344,29.838,10.607,30.316z M9.221,33.161  c0.305,0.447,0.609,0.894,0.609,0.894l0.304-0.742c0.181-0.429,0.176-0.91-0.076-1.318c0,0-0.274-0.461-0.549-0.921  c-0.269-0.471-0.538-0.943-0.538-0.943l-0.379,0.758c-0.221,0.442-0.208,0.957,0.039,1.36C8.632,32.25,8.914,32.707,9.221,33.161z   M8.044,36.1c0.337,0.424,0.674,0.848,0.674,0.848l0.247-0.763c0.163-0.436,0.112-0.92-0.166-1.307c0,0-0.307-0.44-0.615-0.88  c-0.303-0.451-0.606-0.902-0.606-0.902L7.257,33.88c-0.187,0.457-0.136,0.971,0.14,1.355C7.396,35.235,7.701,35.667,8.044,36.1z   M7.081,39.115c0.368,0.399,0.735,0.798,0.735,0.798l0.191-0.779c0.144-0.443,0.047-0.925-0.256-1.291c0,0-0.339-0.417-0.679-0.834  c-0.336-0.428-0.671-0.856-0.671-0.856L6.14,36.96c-0.153,0.47-0.063,0.979,0.24,1.342C6.38,38.302,6.707,38.709,7.081,39.115z   M6.339,42.19c0.393,0.36,0.838,0.585,0.838,0.585c-0.013-0.001,0.064-0.569,0.097-0.628c0.11-0.453-0.023-0.927-0.352-1.27  c0,0-0.37-0.391-0.739-0.783c-0.367-0.403-0.733-0.806-0.733-0.806l-0.2,0.824c-0.117,0.48,0.011,0.982,0.341,1.322  C5.59,41.434,5.956,41.822,6.339,42.19z M5.806,44.914c0,0,0.557,0.12,1.079,0.093c0.534-0.017,1.006-0.171,1.006-0.171  c-0.014,0.012-0.347-0.457-0.335-0.466c-0.167-0.285-0.484-0.493-0.933-0.624c0,0-0.503-0.135-0.978-0.417  c-0.481-0.268-0.914-0.678-0.914-0.678c-0.038,0,0.028,1.066,0.049,1.064C4.868,44.339,5.319,44.822,5.806,44.914z M55.738,9.549  c-0.014-0.013,0.395-0.422,0.405-0.41c0.255-0.21,0.399-0.566,0.459-1.018c0,0,0.049-0.517,0.254-1.034  c0.189-0.522,0.54-1.01,0.54-1.01c-0.004-0.022-1.07,0.18-1.059,0.22c-0.608,0.19-1.014,0.71-1.023,1.208  c0,0-0.026,0.568,0.091,1.083C55.509,9.107,55.738,9.549,55.738,9.549z M58.194,8.523c0.136,0.011,0.389,0.009,0.604-0.055  c0.216-0.064,0.417-0.183,0.584-0.351c0,0,0.381-0.376,0.763-0.753c0.393-0.374,0.786-0.747,0.786-0.747L60.103,6.43  c-0.482-0.109-0.979,0.026-1.311,0.362c0,0-0.096,0.097-0.241,0.243c-0.146,0.153-0.321,0.347-0.468,0.573  c-0.302,0.429-0.452,0.906-0.452,0.906s0.141-0.005,0.281-0.011C58.053,8.508,58.194,8.523,58.194,8.523z M61.147,9.177  c0.459,0.088,0.93,0.008,1.289-0.308c0,0,0.407-0.347,0.814-0.694c0.419-0.343,0.837-0.687,0.837-0.687l-0.81-0.25  c-0.473-0.143-0.976-0.053-1.334,0.268c0,0-0.401,0.372-0.801,0.743C60.753,8.625,60.365,9,60.365,9L61.147,9.177z M64.118,10.06  c0.45,0.125,0.932,0.059,1.31-0.22c0,0,0.431-0.316,0.862-0.631c0.442-0.311,0.884-0.623,0.884-0.623l-0.789-0.31  c-0.462-0.174-0.965-0.136-1.352,0.177c0,0-0.426,0.341-0.852,0.682c-0.415,0.345-0.829,0.689-0.829,0.689L64.118,10.06z   M66.271,10.862l0.747,0.293c0.438,0.16,0.931,0.115,1.324-0.13c0,0,0.452-0.283,0.905-0.566c0.463-0.278,0.926-0.556,0.926-0.556  l-0.764-0.368c-0.446-0.213-0.955-0.2-1.363,0.084c0,0-0.449,0.308-0.899,0.617C66.709,10.549,66.271,10.862,66.271,10.862z   M69.108,12.108l0.723,0.348c0.423,0.197,0.923,0.176,1.332-0.037c0,0,0.471-0.249,0.943-0.499c0.482-0.243,0.963-0.487,0.963-0.487  l-0.735-0.423c-0.426-0.25-0.941-0.263-1.368-0.011c0,0-0.47,0.275-0.94,0.549C69.568,11.828,69.108,12.108,69.108,12.108z   M71.849,13.555l0.695,0.4c0.404,0.232,0.911,0.238,1.333,0.056c0,0,0.488-0.214,0.975-0.429c0.498-0.208,0.995-0.416,0.995-0.416  l-0.702-0.476c-0.404-0.285-0.922-0.325-1.365-0.106c0,0-0.488,0.24-0.977,0.479C72.327,13.31,71.849,13.555,71.849,13.555z   M74.478,15.196l0.664,0.45c0.384,0.264,0.894,0.3,1.328,0.149c0,0,0.502-0.179,1.003-0.357c0.511-0.171,1.022-0.343,1.022-0.343  L77.83,14.57c-0.38-0.315-0.9-0.385-1.356-0.201c0,0-0.504,0.203-1.008,0.407C74.972,14.986,74.478,15.196,74.478,15.196z   M76.983,17.022l0.629,0.498c0.361,0.294,0.873,0.36,1.315,0.242c0,0,0.513-0.142,1.026-0.284c0.522-0.134,1.044-0.268,1.044-0.268  l-0.625-0.573c-0.356-0.343-0.874-0.443-1.339-0.296c0,0-0.517,0.167-1.034,0.333C77.491,16.848,76.983,17.022,76.983,17.022z   M79.351,19.022l0.592,0.542c0.34,0.319,0.842,0.425,1.296,0.334c0,0,0.521-0.105,1.043-0.21c0.53-0.096,1.06-0.193,1.06-0.193  l-0.582-0.616c-0.33-0.368-0.845-0.5-1.317-0.389c0,0-0.527,0.129-1.055,0.258C79.87,18.885,79.351,19.022,79.351,19.022z   M81.571,21.186l0.551,0.584c0.317,0.342,0.805,0.487,1.271,0.424c0,0,0.527-0.067,1.055-0.134c0.535-0.058,1.07-0.116,1.07-0.116  l-0.536-0.657c-0.301-0.392-0.812-0.555-1.287-0.48c0,0-0.535,0.091-1.07,0.181C82.097,21.086,81.571,21.186,81.571,21.186z   M83.63,23.503l0.507,0.622c0.293,0.363,0.765,0.547,1.24,0.512c0,0,0.53-0.029,1.061-0.058c0.537-0.019,1.075-0.039,1.075-0.039  l-0.486-0.694c-0.271-0.413-0.775-0.608-1.252-0.57c0,0-0.54,0.052-1.08,0.104C84.162,23.442,83.63,23.503,83.63,23.503z   M85.518,25.961l0.46,0.657c0.267,0.382,0.719,0.603,1.202,0.598c0,0,0.531,0.009,1.061,0.019c0.537,0.02,1.074,0.039,1.074,0.039  l-0.434-0.728c-0.239-0.433-0.736-0.658-1.21-0.656c0,0-0.542,0.013-1.084,0.026C86.053,25.938,85.518,25.961,85.518,25.961z   M87.225,28.548l0.411,0.689c0.239,0.4,0.672,0.654,1.155,0.683c0,0,0.53,0.047,1.06,0.093c0.534,0.058,1.068,0.117,1.068,0.117  l-0.379-0.758c-0.215-0.445-0.689-0.708-1.163-0.74c0,0-0.541-0.026-1.082-0.052C87.76,28.564,87.225,28.548,87.225,28.548z   M89.805,31.36c-0.532-0.055-1.064-0.109-1.064-0.109l0.359,0.718c0.208,0.417,0.621,0.701,1.101,0.766c0,0,0.534,0.073,1.056,0.167  c0.528,0.097,1.055,0.194,1.055,0.194l-0.322-0.784c-0.193-0.455-0.638-0.755-1.11-0.82C90.88,31.491,90.343,31.425,89.805,31.36z   M91.112,34.242c-0.526-0.093-1.052-0.186-1.052-0.186l0.304,0.742c0.177,0.431,0.567,0.745,1.041,0.844  c0,0,0.538,0.108,1.047,0.241c0.518,0.135,1.037,0.27,1.037,0.27l-0.262-0.806c-0.173-0.462-0.583-0.799-1.053-0.897  C92.173,34.45,91.642,34.346,91.112,34.242z M92.207,37.21c-0.517-0.131-1.034-0.262-1.034-0.262l0.247,0.763  c0.144,0.443,0.509,0.785,0.974,0.918c0,0,0.538,0.144,1.034,0.314c0.506,0.172,1.013,0.345,1.013,0.345l-0.203-0.823  c-0.152-0.47-0.526-0.839-0.99-0.97C93.249,37.495,92.728,37.353,92.207,37.21z M93.085,40.25c-0.505-0.168-1.011-0.337-1.011-0.337  l0.189,0.78c0.11,0.453,0.448,0.82,0.901,0.987c0,0,0.513,0.182,1.019,0.389c0.504,0.219,0.976,0.582,0.976,0.582  c0.027-0.004-0.129-1.069-0.145-1.001c-0.116-0.48-0.461-0.875-0.913-1.039C94.101,40.61,93.593,40.43,93.085,40.25z M93.03,44.423  c0,0,0.31,0.415,0.513,0.936c0.208,0.507,0.288,1.101,0.288,1.101c0.027,0.02,0.651-0.855,0.626-0.871  c0.319-0.546,0.262-1.203-0.059-1.576c0,0-0.36-0.438-0.794-0.743c-0.425-0.318-0.891-0.496-0.891-0.496  c0.025,0.001-0.025,0.581-0.025,0.581C92.642,43.685,92.763,44.045,93.03,44.423z M44.152,92.004  c0.014,0.013-0.395,0.422-0.405,0.41c-0.255,0.21-0.399,0.566-0.459,1.018c0,0-0.049,0.517-0.254,1.034  c-0.189,0.522-0.54,1.01-0.54,1.01c0.004,0.022,1.07-0.18,1.059-0.22c0.608-0.19,1.014-0.71,1.023-1.208  c0,0,0.026-0.568-0.091-1.083C44.382,92.447,44.152,92.004,44.152,92.004z M41.697,93.03c-0.136-0.011-0.389-0.009-0.604,0.055  c-0.216,0.064-0.417,0.183-0.584,0.351c0,0-0.381,0.376-0.762,0.753c-0.393,0.374-0.786,0.747-0.786,0.747l0.827,0.188  c0.482,0.109,0.979-0.026,1.311-0.362c0,0,0.096-0.097,0.241-0.243c0.146-0.153,0.321-0.347,0.468-0.573  c0.302-0.429,0.452-0.906,0.452-0.906s-0.141,0.005-0.281,0.011C41.837,93.045,41.697,93.03,41.697,93.03z M38.744,92.376  c-0.459-0.088-0.93-0.008-1.289,0.308c0,0-0.407,0.347-0.814,0.694c-0.419,0.343-0.837,0.687-0.837,0.687l0.81,0.25  c0.473,0.143,0.976,0.053,1.334-0.268c0,0,0.401-0.372,0.801-0.743c0.389-0.375,0.778-0.749,0.778-0.749L38.744,92.376z   M35.772,91.493c-0.45-0.124-0.932-0.059-1.31,0.22c0,0-0.431,0.316-0.862,0.631c-0.442,0.311-0.884,0.623-0.884,0.623l0.789,0.31  c0.462,0.174,0.965,0.136,1.352-0.177c0,0,0.426-0.341,0.852-0.682c0.415-0.345,0.829-0.689,0.829-0.689L35.772,91.493z   M33.619,90.691l-0.747-0.293c-0.438-0.16-0.931-0.115-1.324,0.13c0,0-0.452,0.283-0.905,0.566  c-0.463,0.278-0.926,0.556-0.926,0.556l0.764,0.368c0.446,0.213,0.955,0.2,1.363-0.084c0,0,0.449-0.308,0.899-0.617  C33.181,91.004,33.619,90.691,33.619,90.691z M30.782,89.445l-0.723-0.348c-0.423-0.197-0.923-0.176-1.332,0.037  c0,0-0.471,0.249-0.943,0.499c-0.482,0.243-0.963,0.487-0.963,0.487l0.735,0.423c0.426,0.25,0.941,0.263,1.368,0.011  c0,0,0.47-0.274,0.94-0.549C30.323,89.725,30.782,89.445,30.782,89.445z M28.042,87.998l-0.695-0.4  c-0.404-0.232-0.911-0.238-1.333-0.056c0,0-0.488,0.214-0.975,0.429c-0.498,0.208-0.995,0.416-0.995,0.416l0.702,0.476  c0.404,0.285,0.922,0.325,1.365,0.106c0,0,0.488-0.24,0.977-0.479C27.564,88.243,28.042,87.998,28.042,87.998z M25.413,86.357  l-0.664-0.45c-0.384-0.264-0.894-0.3-1.328-0.149c0,0-0.502,0.179-1.003,0.357c-0.511,0.171-1.022,0.343-1.022,0.343l0.665,0.526  c0.38,0.315,0.9,0.385,1.356,0.201c0,0,0.504-0.203,1.008-0.407C24.919,86.567,25.413,86.357,25.413,86.357z M22.908,84.532  l-0.629-0.498c-0.361-0.294-0.873-0.36-1.315-0.242c0,0-0.513,0.142-1.026,0.284c-0.522,0.134-1.044,0.268-1.044,0.268l0.625,0.573  c0.356,0.343,0.874,0.443,1.339,0.296c0,0,0.517-0.167,1.034-0.333C22.4,84.706,22.908,84.532,22.908,84.532z M20.539,82.532  l-0.592-0.542c-0.34-0.319-0.842-0.425-1.296-0.334c0,0-0.521,0.105-1.043,0.21c-0.53,0.096-1.06,0.193-1.06,0.193l0.582,0.616  c0.33,0.368,0.845,0.5,1.317,0.389c0,0,0.527-0.129,1.055-0.258C20.021,82.669,20.539,82.532,20.539,82.532z M18.32,80.368  l-0.551-0.584c-0.317-0.342-0.805-0.487-1.271-0.424c0,0-0.527,0.067-1.055,0.134c-0.535,0.058-1.07,0.116-1.07,0.116l0.536,0.657  c0.301,0.392,0.812,0.555,1.287,0.48c0,0,0.535-0.091,1.07-0.181C17.793,80.467,18.32,80.368,18.32,80.368z M16.261,78.05  l-0.507-0.622c-0.293-0.363-0.765-0.547-1.24-0.512c0,0-0.53,0.029-1.061,0.058c-0.537,0.019-1.075,0.039-1.075,0.039l0.486,0.694  c0.271,0.413,0.775,0.608,1.252,0.57c0,0,0.54-0.052,1.08-0.104C15.729,78.112,16.261,78.05,16.261,78.05z M14.373,75.592  l-0.46-0.657c-0.267-0.382-0.719-0.603-1.202-0.598c0,0-0.531-0.009-1.061-0.019c-0.537-0.02-1.074-0.039-1.074-0.039l0.434,0.728  c0.239,0.433,0.736,0.658,1.21,0.656c0,0,0.542-0.013,1.084-0.026C13.838,75.615,14.373,75.592,14.373,75.592z M12.666,73.005  l-0.411-0.689c-0.239-0.4-0.672-0.654-1.155-0.683c0,0-0.53-0.047-1.06-0.093c-0.534-0.058-1.068-0.117-1.068-0.117l0.379,0.758  c0.215,0.445,0.689,0.708,1.163,0.74c0,0,0.541,0.026,1.082,0.052C12.131,72.989,12.666,73.005,12.666,73.005z M10.085,70.193  c0.532,0.055,1.064,0.109,1.064,0.109l-0.359-0.718c-0.208-0.417-0.621-0.701-1.101-0.766c0,0-0.534-0.073-1.056-0.167  c-0.528-0.097-1.055-0.194-1.055-0.194L7.9,69.242c0.193,0.454,0.638,0.755,1.11,0.82C9.011,70.063,9.548,70.128,10.085,70.193z   M8.779,67.312c0.526,0.093,1.052,0.186,1.052,0.186l-0.304-0.742c-0.177-0.431-0.567-0.745-1.041-0.844  c0,0-0.538-0.108-1.047-0.241c-0.518-0.135-1.037-0.27-1.037-0.27l0.262,0.806c0.173,0.462,0.583,0.799,1.053,0.897  C7.718,67.103,8.248,67.207,8.779,67.312z M7.684,64.343c0.517,0.131,1.034,0.262,1.034,0.262L8.47,63.842  c-0.144-0.443-0.509-0.785-0.974-0.918c0,0-0.538-0.144-1.034-0.314c-0.506-0.173-1.013-0.345-1.013-0.345l0.203,0.823  c0.152,0.47,0.526,0.839,0.99,0.969C6.642,64.058,7.163,64.201,7.684,64.343z M6.806,61.303c0.505,0.168,1.011,0.337,1.011,0.337  l-0.189-0.78c-0.11-0.453-0.448-0.82-0.901-0.987c0,0-0.513-0.182-1.019-0.389c-0.504-0.219-0.976-0.582-0.976-0.582  c-0.027,0.004,0.129,1.069,0.145,1.001c0.116,0.48,0.461,0.875,0.913,1.039C5.79,60.943,6.298,61.123,6.806,61.303z M6.861,57.13  c0,0-0.31-0.415-0.513-0.936c-0.208-0.507-0.288-1.101-0.288-1.101c-0.027-0.02-0.651,0.855-0.626,0.871  c-0.319,0.546-0.262,1.203,0.059,1.576c0,0,0.36,0.438,0.794,0.743c0.425,0.318,0.891,0.496,0.891,0.496  c-0.025-0.001,0.025-0.581,0.025-0.581C7.248,57.868,7.128,57.508,6.861,57.13z M54.365,88.682c-0.112-0.309-0.33-0.557-0.602-0.723  c0.164-0.235,0.262-0.521,0.262-0.83c0-0.802-0.651-1.453-1.453-1.453c-0.803,0-1.453,0.651-1.453,1.453  c0,0.433,0.193,0.817,0.493,1.083c0.187,0.376,0.523,0.658,0.936,0.755l2.098,0.49L54.365,88.682z M57.078,92.923  c-0.31-0.098-0.686-0.03-1.103,0.168c0,0-0.462,0.237-1.006,0.346c-0.539,0.125-1.136,0.105-1.136,0.105  c-0.025,0.022,0.732,0.783,0.752,0.761c0.486,0.403,1.142,0.469,1.569,0.202c0,0,0.493-0.284,0.859-0.662  c0.379-0.367,0.617-0.804,0.617-0.804S57.073,92.949,57.078,92.923z M58.576,93.619c0,0-0.048,0.123-0.12,0.309  c-0.073,0.178-0.188,0.433-0.335,0.66c-0.285,0.48-0.723,0.889-0.723,0.889c-0.001,0.025,1.087,0.026,1.084-0.015  c0.342-0.039,0.539-0.157,0.723-0.31c0.183-0.155,0.327-0.352,0.415-0.577c0,0,0.192-0.506,0.384-1.013  c0.18-0.504,0.361-1.008,0.361-1.008l-0.782,0.178C59.128,92.834,58.753,93.168,58.576,93.619z M61.645,92.922  c0,0-0.173,0.502-0.346,1.004c-0.185,0.505-0.369,1.01-0.369,1.01l0.827-0.188c0.486-0.095,0.855-0.489,0.999-0.945  c0,0,0.155-0.52,0.31-1.04c0.143-0.517,0.286-1.033,0.286-1.033l-0.766,0.236C62.139,92.1,61.792,92.47,61.645,92.922z M64.654,92  c0,0-0.136,0.514-0.272,1.028c-0.147,0.518-0.295,1.036-0.295,1.036l0.81-0.25c0.476-0.133,0.823-0.534,0.93-1.009  c0,0,0.116-0.531,0.233-1.061c0.105-0.526,0.21-1.053,0.21-1.053l-0.747,0.293C65.089,91.148,64.774,91.557,64.654,92z   M67.589,90.865c0,0-0.098,0.523-0.196,1.047c-0.109,0.528-0.218,1.056-0.218,1.056l0.789-0.31c0.464-0.17,0.788-0.58,0.857-1.069  c0,0,0.078-0.538,0.155-1.077c0.067-0.533,0.133-1.066,0.133-1.066l-0.723,0.348C67.965,89.995,67.676,90.414,67.589,90.865z   M70.434,89.521c0,0-0.06,0.53-0.119,1.059c-0.07,0.535-0.141,1.07-0.141,1.07l0.764-0.368c0.447-0.21,0.747-0.63,0.779-1.124  c0,0,0.038-0.543,0.077-1.086c0.028-0.537,0.056-1.074,0.056-1.074l-0.695,0.401C70.752,88.636,70.488,89.063,70.434,89.521z   M74.478,86.357l-0.664,0.451c-0.381,0.27-0.619,0.706-0.639,1.168c0,0-0.021,0.533-0.042,1.066  c-0.031,0.539-0.063,1.078-0.063,1.078l0.734-0.424c0.428-0.246,0.702-0.678,0.698-1.174c0,0-0.001-0.545-0.002-1.089  C74.489,86.895,74.478,86.357,74.478,86.357z M76.983,84.532l-0.629,0.498c-0.359,0.299-0.571,0.743-0.556,1.208  c0,0,0.017,0.534,0.035,1.067c0.008,0.54,0.015,1.081,0.015,1.081l0.701-0.476c0.406-0.28,0.654-0.723,0.614-1.219  c0,0-0.04-0.543-0.081-1.087C77.033,85.068,76.983,84.532,76.983,84.532z M79.528,83.595c-0.088-0.531-0.177-1.063-0.177-1.063  l-0.591,0.542c-0.335,0.325-0.52,0.777-0.47,1.243c0,0,0.056,0.531,0.112,1.063c0.047,0.539,0.093,1.078,0.093,1.078l0.665-0.526  c0.382-0.312,0.603-0.765,0.527-1.258C79.686,84.673,79.607,84.134,79.528,83.595z M81.823,81.416  c-0.126-0.524-0.253-1.048-0.253-1.048l-0.55,0.584c-0.31,0.349-0.468,0.808-0.381,1.272c0,0,0.094,0.526,0.188,1.052  c0.085,0.534,0.17,1.069,0.17,1.069l0.625-0.573c0.36-0.338,0.544-0.81,0.437-1.291C82.059,82.481,81.941,81.948,81.823,81.416z   M83.957,79.078c-0.164-0.514-0.327-1.028-0.327-1.028l-0.506,0.622c-0.283,0.371-0.413,0.835-0.291,1.294  c0,0,0.131,0.518,0.263,1.037c0.123,0.527,0.247,1.054,0.247,1.054l0.582-0.617c0.336-0.362,0.481-0.85,0.346-1.317  C84.269,80.124,84.113,79.601,83.957,79.078z M85.918,76.594c-0.2-0.501-0.401-1.002-0.401-1.002l-0.46,0.658  c-0.255,0.391-0.358,0.859-0.2,1.31c0,0,0.168,0.508,0.337,1.016c0.161,0.517,0.322,1.034,0.322,1.034l0.535-0.657  c0.31-0.384,0.415-0.885,0.253-1.337C86.305,77.616,86.112,77.105,85.918,76.594z M87.697,73.976  c-0.236-0.486-0.472-0.971-0.472-0.971l-0.41,0.69c-0.225,0.409-0.301,0.878-0.108,1.32c0,0,0.205,0.495,0.409,0.99  c0.198,0.505,0.396,1.009,0.396,1.009l0.486-0.695c0.283-0.405,0.346-0.916,0.159-1.35C88.157,74.968,87.927,74.472,87.697,73.976z   M89.284,71.238c-0.271-0.468-0.542-0.935-0.542-0.935l-0.358,0.718c-0.202,0.421-0.24,0.896-0.016,1.322c0,0,0.24,0.479,0.48,0.958  c0.234,0.489,0.468,0.979,0.468,0.979l0.434-0.728c0.253-0.424,0.277-0.939,0.061-1.359C89.81,72.192,89.547,71.715,89.284,71.238z   M90.669,68.392c-0.305-0.447-0.609-0.894-0.609-0.894l-0.304,0.742c-0.181,0.429-0.176,0.91,0.076,1.318  c0,0,0.274,0.461,0.549,0.921c0.269,0.471,0.538,0.943,0.538,0.943l0.379-0.758c0.221-0.442,0.207-0.957-0.039-1.36  C91.259,69.304,90.976,68.846,90.669,68.392z M91.847,65.454c-0.337-0.424-0.674-0.848-0.674-0.848l-0.247,0.763  c-0.164,0.436-0.112,0.92,0.166,1.307c0,0,0.307,0.44,0.615,0.88c0.303,0.451,0.606,0.902,0.606,0.902l0.322-0.785  c0.187-0.457,0.136-0.971-0.14-1.355C92.494,66.318,92.19,65.886,91.847,65.454z M92.809,62.438  c-0.368-0.399-0.735-0.798-0.735-0.798l-0.191,0.779c-0.144,0.443-0.047,0.925,0.256,1.291c0,0,0.339,0.417,0.679,0.834  c0.336,0.428,0.671,0.856,0.671,0.856l0.262-0.807c0.152-0.47,0.063-0.979-0.24-1.342C93.51,63.251,93.184,62.845,92.809,62.438z   M93.552,59.364c-0.393-0.36-0.838-0.585-0.838-0.585c0.013,0.001-0.064,0.569-0.097,0.628c-0.11,0.453,0.023,0.927,0.352,1.27  c0,0,0.37,0.391,0.739,0.783c0.367,0.403,0.733,0.806,0.733,0.806l0.2-0.824c0.117-0.48-0.011-0.982-0.341-1.322  C94.301,60.119,93.934,59.731,93.552,59.364z M95.11,57.838c-0.088-0.624-0.539-1.106-1.026-1.199c0,0-0.557-0.12-1.079-0.094  c-0.534,0.017-1.006,0.171-1.006,0.171c0.014-0.012,0.347,0.457,0.335,0.466c0.167,0.285,0.484,0.493,0.933,0.624  c0,0,0.503,0.135,0.978,0.417c0.481,0.268,0.914,0.678,0.914,0.678C95.198,58.903,95.131,57.836,95.11,57.838z"/><text x="0" y="115" fill="#000000" font-size="5px" font-weight="bold" font-family="'Helvetica Neue', Helvetica, Arial-Unicode, Arial, Sans-serif">Created by  Laymik</text><text x="0" y="120" fill="#000000" font-size="5px" font-weight="bold" font-family="'Helvetica Neue', Helvetica, Arial-Unicode, Arial, Sans-serif">from the Noun Project</text></svg>