<svg xmlns="http://www.w3.org/2000/svg" xmlns:xlink="http://www.w3.org/1999/xlink" version="1.1" x="0px" y="0px" viewBox="0 0 100 125" style="enable-background:new 0 0 100 100;" xml:space="preserve"><style type="text/css">
	.st0{fill:none;stroke:#000000;stroke-width:2;stroke-linecap:round;stroke-linejoin:round;stroke-miterlimit:10;}
	.st1{fill:none;stroke:#000000;stroke-width:2;stroke-miterlimit:10;}
	.st2{fill:none;stroke:#000000;stroke-width:2;stroke-linecap:round;stroke-miterlimit:10;}
</style><rect x="11.5" y="20.7" class="st0" width="78.5" height="58.8"/><g><polyline class="st0" points="29.9,80.1 29.9,85.8 16.6,85.8 16.6,80.1  "/><polyline class="st0" points="84.9,80.1 84.9,85.8 71.6,85.8 71.6,80.1  "/></g><g><path class="st0" d="M23.4,32.3c0,2.2-1.7,3.9-3.9,3.9s-3.9-1.7-3.9-3.9"/><path class="st0" d="M31.2,32.3c0,2.2-1.7,3.9-3.9,3.9s-3.9-1.7-3.9-3.9"/><path class="st0" d="M39,32.3c0,2.2-1.7,3.9-3.9,3.9c-2.2,0-3.9-1.7-3.9-3.9"/><path class="st0" d="M46.8,32.3c0,2.2-1.7,3.9-3.9,3.9S39,34.5,39,32.3"/><path class="st0" d="M54.7,32.3c0,2.2-1.7,3.9-3.9,3.9c-2.2,0-3.9-1.7-3.9-3.9"/><path class="st0" d="M62.5,32.3c0,2.2-1.7,3.9-3.9,3.9s-3.9-1.7-3.9-3.9"/><path class="st0" d="M70.3,32.3c0,2.2-1.7,3.9-3.9,3.9c-2.2,0-3.9-1.7-3.9-3.9"/><path class="st0" d="M78.1,32.3c0,2.2-1.7,3.9-3.9,3.9c-2.2,0-3.9-1.7-3.9-3.9"/><path class="st0" d="M85.9,32.3c0,2.2-1.7,3.9-3.9,3.9c-2.2,0-3.9-1.7-3.9-3.9"/></g><path class="st0" d="M34.1,51.4c0.9,0.8,0.2,1.6,1.1,2.4c0.9,0.8,1.6,0.1,2.5,0.9c0.9,0.8,0.2,1.6,1.1,2.4c0.9,0.8,1.6,0.1,2.5,0.9  c0.9,0.8,0.2,1.6,1.1,2.4c0.9,0.8,1.6,0.1,2.5,0.9c0.9,0.8,0.2,1.6,1.1,2.4c0.9,0.8,1.6,0.1,2.5,0.9c0.9,0.8,0.2,1.6,1.1,2.4"/><path class="st0" d="M31.6,54c0.9,0.8,0.2,1.6,1.1,2.4c0.9,0.8,1.6,0.1,2.5,0.9c0.9,0.8,0.2,1.6,1.1,2.4c0.9,0.8,1.6,0.1,2.5,0.9  c0.9,0.8,0.2,1.6,1.1,2.4c0.9,0.8,1.6,0.1,2.5,0.9c0.9,0.8,0.2,1.6,1.1,2.4c0.9,0.8,1.6,0.1,2.5,0.9c0.9,0.8,0.2,1.6,1.1,2.4"/><path class="st0" d="M29.1,56.6c0.9,0.8,0.2,1.6,1.1,2.4c0.9,0.8,1.6,0.1,2.5,0.9c0.9,0.8,0.2,1.6,1.1,2.4c0.9,0.8,1.6,0.1,2.5,0.9  c0.9,0.8,0.2,1.6,1.1,2.4c0.9,0.8,1.6,0.1,2.5,0.9c0.9,0.8,0.2,1.6,1.1,2.4c0.9,0.8,1.6,0.1,2.5,0.9c0.9,0.8,0.2,1.6,1.1,2.4"/><path class="st0" d="M32.5,46.2c2.7,2.6,1.3,5.5-1.2,8.2c-2.6,2.7-5.4,4.2-8.1,1.7s-2.8-6.9-0.2-9.6C25.5,43.7,29.8,43.6,32.5,46.2z  "/><path class="st0" d="M66.3,51.4c0.9,0.8,0.2,1.6,1.1,2.4c0.9,0.8,1.6,0.1,2.5,0.9c0.9,0.8,0.2,1.6,1.1,2.4c0.9,0.8,1.6,0.1,2.5,0.9  c0.9,0.8,0.2,1.6,1.1,2.4c0.9,0.8,1.6,0.1,2.5,0.9c0.9,0.8,0.2,1.6,1.1,2.4c0.9,0.8,1.6,0.1,2.5,0.9c0.9,0.8,0.2,1.6,1.1,2.4"/><path class="st0" d="M63.9,54c0.9,0.8,0.2,1.6,1.1,2.4c0.9,0.8,1.6,0.1,2.5,0.9c0.9,0.8,0.2,1.6,1.1,2.4c0.9,0.8,1.6,0.1,2.5,0.9  c0.9,0.8,0.2,1.6,1.1,2.4c0.9,0.8,1.6,0.1,2.5,0.9c0.9,0.8,0.2,1.6,1.1,2.4c0.9,0.8,1.6,0.1,2.5,0.9c0.9,0.8,0.2,1.6,1.1,2.4"/><path class="st0" d="M61.4,56.6c0.9,0.8,0.2,1.6,1.1,2.4c0.9,0.8,1.6,0.1,2.5,0.9c0.9,0.8,0.2,1.6,1.1,2.4c0.9,0.8,1.6,0.1,2.5,0.9  c0.9,0.8,0.2,1.6,1.1,2.4c0.9,0.8,1.6,0.1,2.5,0.9c0.9,0.8,0.2,1.6,1.1,2.4c0.9,0.8,1.6,0.1,2.5,0.9c0.9,0.8,0.2,1.6,1.1,2.4"/><path class="st0" d="M64.8,46.2c2.7,2.6,1.3,5.5-1.2,8.2c-2.6,2.7-5.4,4.2-8.1,1.7s-2.8-6.9-0.2-9.6C57.8,43.7,62,43.6,64.8,46.2z"/><text x="0" y="115" fill="#000000" font-size="5px" font-weight="bold" font-family="'Helvetica Neue', Helvetica, Arial-Unicode, Arial, Sans-serif">Created by Made by Made</text><text x="0" y="120" fill="#000000" font-size="5px" font-weight="bold" font-family="'Helvetica Neue', Helvetica, Arial-Unicode, Arial, Sans-serif">from the Noun Project</text></svg>