<svg xmlns="http://www.w3.org/2000/svg" xmlns:xlink="http://www.w3.org/1999/xlink" version="1.1" x="0px" y="0px" viewBox="0 0 100 125" enable-background="new 0 0 100 100" xml:space="preserve"><path d="M88.451,55.363c-2.219,0-4.023,1.805-4.023,4.023s1.805,4.023,4.023,4.023s4.023-1.805,4.023-4.023  S90.67,55.363,88.451,55.363z M88.451,61.41c-1.116,0-2.023-0.907-2.023-2.023s0.907-2.023,2.023-2.023s2.023,0.907,2.023,2.023  S89.567,61.41,88.451,61.41z"/><path d="M88.055,48.986c0-1.5-1.221-2.721-2.722-2.721c-1.5,0-2.721,1.221-2.721,2.721c0,1.501,1.221,2.722,2.721,2.722  C86.834,51.708,88.055,50.487,88.055,48.986z M84.612,48.986c0-0.397,0.323-0.721,0.721-0.721s0.722,0.323,0.722,0.721  s-0.324,0.722-0.722,0.722S84.612,49.384,84.612,48.986z"/><circle cx="92.937" cy="45.535" r="1.285"/><path d="M17.091,52.349c-2.219,0-4.023,1.805-4.023,4.023s1.805,4.023,4.023,4.023s4.023-1.805,4.023-4.023  S19.31,52.349,17.091,52.349z M17.091,58.396c-1.116,0-2.023-0.907-2.023-2.023s0.907-2.023,2.023-2.023s2.023,0.907,2.023,2.023  S18.207,58.396,17.091,58.396z"/><path d="M7.943,43.25c-1.501,0-2.722,1.221-2.722,2.722c0,1.5,1.221,2.721,2.722,2.721c1.5,0,2.721-1.221,2.721-2.721  C10.664,44.471,9.443,43.25,7.943,43.25z M7.943,46.692c-0.397,0-0.722-0.323-0.722-0.721s0.324-0.722,0.722-0.722  s0.721,0.324,0.721,0.722S8.341,46.692,7.943,46.692z"/><path d="M86.339,75.412c-1.501,0-2.722,1.221-2.722,2.722c0,1.5,1.221,2.721,2.722,2.721c1.5,0,2.721-1.221,2.721-2.721  C89.06,76.633,87.839,75.412,86.339,75.412z M86.339,78.854c-0.397,0-0.722-0.323-0.722-0.721s0.324-0.722,0.722-0.722  s0.721,0.324,0.721,0.722S86.736,78.854,86.339,78.854z"/><circle cx="11.527" cy="35.484" r="1.285"/><circle cx="15.547" cy="79.707" r="1.285"/><path d="M49.999,4.965c-16.386,0-29.346,11.998-30.146,27.908c-0.002,0.035,0.013,0.066,0.015,0.101  c-0.002,0-0.012-0.004-0.012-0.003c0,3.821,3.292,6.979,7.091,6.979c1.795,0,3.476-0.642,4.76-1.779  c1.505,1.149,3.329,1.779,5.248,1.779c2.233,0,4.356-0.857,5.967-2.374c1.889,1.537,4.228,2.374,6.686,2.374  c2.579,0,5-0.901,6.924-2.558c1.624,1.635,3.808,2.558,6.142,2.558c1.979,0,3.866-0.667,5.406-1.89  c1.286,1.222,2.95,1.89,4.778,1.89c3.939,0,7.288-3.173,7.288-7.039C79.345,17.002,66.386,4.965,49.999,4.965z M72.856,37.95  c-1.52,0-2.883-0.642-3.84-1.806c-0.375-0.455-1.219-0.537-1.645-0.12c-1.27,1.242-2.938,1.926-4.698,1.926  c-2.08,0-4.009-0.95-5.29-2.608c-0.17-0.217-0.457-0.352-0.73-0.369c-0.281-0.018-0.59,0.087-0.786,0.292  c-1.646,1.731-3.869,2.685-6.261,2.685c-2.271,0-4.417-0.88-6.042-2.477c-0.01-0.009-0.329-0.293-0.773-0.272  c-0.256,0.012-0.527,0.144-0.693,0.341c-1.284,1.53-3.16,2.407-5.145,2.407c-1.667,0-3.241-0.617-4.473-1.732  c-0.477-0.347-1.214-0.363-1.861,0.238c-0.938,0.946-2.278,1.509-3.674,1.509c-2.728,0-5.096-2.223-5.096-4.986  C22.596,18.155,34.697,6.984,49.999,6.984S77.402,18.185,78.146,33.01C78.146,35.726,75.645,37.95,72.856,37.95z M46,43v39.777  c0,2.584-1.222,5.462-3.352,7.592C41.087,91.931,38.86,93,36.54,93c-0.003,0-0.006,0-0.009,0c-2.322,0-4.551-1.074-6.115-2.639  c-2.697-2.697-2.688-7.183,0.022-9.893c0.406-0.406,0.867-0.715,1.347-0.979c-0.597,0.167-1.216,0.251-1.836,0.251  c-1.676,0-3.353-0.609-4.57-1.827c-2.03-2.03-2.022-5.341,0.018-7.381c1.719-1.72,4.507-1.729,6.214-0.023  c1.471,1.473,1.501,3.747,0.069,5.179c-0.603,0.603-1.393,0.909-2.206,0.876c-0.774-0.035-1.525-0.379-2.116-0.97  c-0.391-0.391-0.391-1.023,0-1.414s1.023-0.391,1.414,0c0.236,0.236,0.519,0.374,0.792,0.387c0.281,0.003,0.496-0.087,0.702-0.293  c0.64-0.64,0.608-1.672-0.069-2.351c-0.913-0.91-2.463-0.899-3.386,0.023c-1.26,1.26-1.268,3.303-0.018,4.553  c1.679,1.68,4.623,1.682,6.302,0.006C34.306,75.296,35,73.814,35,72.44V43c0-0.553,0.447-1,1-1s1,0.447,1,1v29.44  c0,1.9-0.908,3.897-2.491,5.479c-0.422,0.422-0.901,0.765-1.415,1.041c1.912-0.508,4.017-0.056,5.503,1.431  c1.905,1.906,1.944,4.831,0.09,6.685c-0.765,0.765-1.746,1.158-2.806,1.101c-0.993-0.045-1.957-0.494-2.715-1.253  c-0.391-0.391-0.391-1.027,0-1.417c0.391-0.391,1.023-0.392,1.414-0.001c0.405,0.405,0.899,0.64,1.392,0.662  c0.498,0.039,0.933-0.161,1.301-0.529c1.062-1.063,1.022-2.766-0.09-3.879c-1.461-1.459-3.851-1.446-5.331,0.034  c-1.93,1.93-1.939,5.06-0.022,6.977c2.505,2.506,6.899,2.511,9.404,0.008C42.992,87.023,44,84.835,44,82.777V43c0-0.553,0.447-1,1-1  S46,42.447,46,43z M68.541,80.54c1.308,1.308,2.032,2.969,2.038,4.821c0.007,1.857-0.709,3.56-2.017,4.867  c-1.63,1.63-3.875,2.406-6.118,2.406c-2.24,0-4.479-0.813-6.104-2.438C54.218,88.072,53,85.368,53,82.777V43c0-0.553,0.447-1,1-1  s1,0.447,1,1v39.777c0,2.064,1.004,4.253,2.755,6.004c2.499,2.499,6.889,2.497,9.394-0.008c0.928-0.928,1.436-2.165,1.431-3.485  s-0.521-2.403-1.452-3.334C66.417,81.244,65.469,81,64.455,81c-0.009,0-0.018,0-0.026,0c-1.002,0-1.936,0.224-2.631,0.919  c-0.539,0.539-0.845,1.157-0.861,1.884c-0.017,0.72,0.258,1.361,0.773,1.877c0.369,0.368,0.819,0.549,1.304,0.509  c0.494-0.022,0.989-0.268,1.395-0.673c0.391-0.391,1.023-0.396,1.414-0.005c0.391,0.39,0.391,1.021,0,1.412  c-0.758,0.759-1.723,1.201-2.718,1.246c-1.036,0.059-2.043-0.347-2.809-1.113c-1.855-1.855-1.817-4.644,0.088-6.549  C61.457,79.433,62.893,79,64.428,79c0.014,0,0.027,0,0.042,0C66.012,79,67.458,79.456,68.541,80.54z M73.583,70.533  c2.04,2.04,2.048,5.351,0.018,7.381c-1.217,1.217-2.892,1.825-4.565,1.825c-1.672,0-3.342-0.606-4.555-1.819  C62.904,76.345,62,74.348,62,72.44V43c0-0.553,0.447-1,1-1s1,0.447,1,1v29.44c0,1.381,0.69,2.862,1.895,4.065  c1.674,1.675,4.614,1.671,6.292-0.006c0.604-0.604,0.936-1.411,0.932-2.272s-0.341-1.672-0.949-2.28  c-0.924-0.924-2.474-0.934-3.384-0.023c-0.678,0.678-0.707,1.71-0.067,2.351c0.206,0.206,0.431,0.292,0.705,0.293  c0.275-0.013,0.559-0.15,0.795-0.387c0.391-0.391,1.023-0.391,1.414,0s0.391,1.023,0,1.414c-1.262,1.261-3.122,1.3-4.328,0.094  c-1.434-1.433-1.403-3.708,0.067-5.179C69.077,68.804,71.863,68.814,73.583,70.533z M30,60c-0.553,0-1-0.447-1-1V43  c0-0.553,0.447-1,1-1s1,0.447,1,1v16C31,59.553,30.553,60,30,60z M69,60c-0.553,0-1-0.447-1-1V43c0-0.553,0.447-1,1-1s1,0.447,1,1  v16C70,59.553,69.553,60,69,60z M69.459,31.866c0.02,0.869-0.603,1.561-1.389,1.547c-0.786-0.015-1.44-0.674-1.458-1.473  c-0.017-0.799,0.606-1.491,1.375-1.546C68.788,30.337,69.44,30.997,69.459,31.866z M66.241,26.83  c-0.107-0.722,0.336-1.426,1.027-1.585c0.714-0.163,1.424,0.341,1.543,1.133c0.133,0.789-0.339,1.501-1.055,1.591  C67.041,28.058,66.362,27.548,66.241,26.83z M66.566,22.652c-0.627,0.195-1.296-0.159-1.505-0.784  c-0.25-0.608,0.036-1.314,0.637-1.575c0.6-0.261,1.312,0.076,1.588,0.753C67.519,21.737,67.19,22.458,66.566,22.652z M64.713,16.113  c0.352,0.557,0.191,1.261-0.318,1.547c-0.518,0.292-1.163,0.103-1.478-0.396c-0.33-0.488-0.211-1.166,0.265-1.513  C63.657,15.403,64.344,15.565,64.713,16.113z M61.018,11.909c0.446,0.4,0.485,1.034,0.107,1.404  c-0.37,0.362-0.973,0.366-1.354,0.024c-0.388-0.333-0.445-0.901-0.164-1.339C59.893,11.554,60.564,11.516,61.018,11.909z   M57.588,32.123c-0.094,0.831-0.801,1.408-1.578,1.289c-0.777-0.119-1.34-0.823-1.255-1.572c0.104-0.746,0.728-1.336,1.528-1.293  C57.052,30.588,57.699,31.293,57.588,32.123z M57.635,26.87c0.043,0.751-0.576,1.363-1.287,1.358c-0.73-0.005-1.28-0.575-1.322-1.28  c-0.028-0.704,0.532-1.312,1.252-1.357S57.606,26.118,57.635,26.87z M55.761,20.659c0.646-0.097,1.256,0.366,1.344,1.037  c0.077,0.674-0.389,1.274-1.041,1.341c-0.652,0.067-1.239-0.4-1.312-1.041C54.669,21.355,55.112,20.757,55.761,20.659z   M55.295,17.896c-0.579,0.109-1.141-0.267-1.254-0.84c-0.121-0.572,0.238-1.14,0.814-1.271c0.573-0.131,1.149,0.242,1.275,0.836  C56.248,17.215,55.874,17.786,55.295,17.896z M54.12,12.831c-0.507,0.138-1.025-0.158-1.171-0.654  c-0.145-0.499,0.132-1.016,0.628-1.184c0.495-0.168,1.04,0.13,1.19,0.648C54.921,12.161,54.624,12.694,54.12,12.831z M33.864,31.878  c0.016,0.793-0.609,1.48-1.393,1.535c-0.784,0.055-1.437-0.614-1.454-1.495c-0.031-0.88,0.622-1.568,1.423-1.534  C33.21,30.417,33.833,31.084,33.864,31.878z M34.112,26.792c-0.106,0.716-0.774,1.234-1.491,1.156s-1.202-0.79-1.083-1.591  c0.096-0.805,0.866-1.305,1.553-1.144C33.808,25.38,34.193,26.071,34.112,26.792z M35.338,21.859  c-0.27,0.601-0.893,0.963-1.529,0.756c-0.61-0.197-0.979-0.944-0.68-1.618c0.278-0.681,0.988-1.011,1.583-0.737  C35.305,20.535,35.587,21.251,35.338,21.859z M37.342,15.764c0.463,0.35,0.566,1.03,0.237,1.524  c-0.346,0.483-0.983,0.667-1.494,0.364c-0.503-0.298-0.662-1.013-0.279-1.552C36.173,15.552,36.865,15.404,37.342,15.764z   M40.933,11.998c0.297,0.43,0.243,1.002-0.146,1.35c-0.381,0.352-0.993,0.349-1.363-0.014c-0.378-0.37-0.336-0.998,0.101-1.401  C39.967,11.538,40.634,11.565,40.933,11.998z M45.787,31.84c0.085,0.749-0.478,1.453-1.255,1.572  c-0.777,0.119-1.485-0.458-1.578-1.289c-0.112-0.831,0.535-1.535,1.306-1.576C45.058,30.504,45.683,31.094,45.787,31.84z   M42.905,26.87c0.03-0.752,0.638-1.324,1.357-1.279s1.28,0.653,1.252,1.357c-0.041,0.705-0.591,1.275-1.322,1.28  C43.481,28.232,42.862,27.62,42.905,26.87z M43.436,21.697c0.087-0.672,0.698-1.135,1.344-1.037c0.65,0.098,1.093,0.696,1.009,1.337  c-0.073,0.642-0.66,1.108-1.312,1.041C43.825,22.971,43.359,22.37,43.436,21.697z M46.5,17.056c-0.114,0.573-0.675,0.949-1.254,0.84  c-0.579-0.109-0.953-0.681-0.834-1.276c0.125-0.594,0.702-0.967,1.275-0.836C46.262,15.916,46.621,16.484,46.5,17.056z   M47.592,12.177c-0.147,0.495-0.665,0.792-1.171,0.654c-0.503-0.137-0.801-0.67-0.647-1.19c0.15-0.518,0.695-0.816,1.19-0.648  C47.46,11.162,47.736,11.679,47.592,12.177z"/><text x="0" y="115" fill="#000000" font-size="5px" font-weight="bold" font-family="'Helvetica Neue', Helvetica, Arial-Unicode, Arial, Sans-serif">Created by  Laymik</text><text x="0" y="120" fill="#000000" font-size="5px" font-weight="bold" font-family="'Helvetica Neue', Helvetica, Arial-Unicode, Arial, Sans-serif">from the Noun Project</text></svg>