<svg xmlns="http://www.w3.org/2000/svg" xmlns:xlink="http://www.w3.org/1999/xlink" version="1.1" x="0px" y="0px" viewBox="0 0 100 125" style="enable-background:new 0 0 100 100;" xml:space="preserve"><g><path d="M63.8,26c-5.4-5.4-12.6-8.4-20.2-8.4c-7.6,0-14.8,3-20.2,8.4c-5.4,5.4-8.4,12.5-8.4,20.2c0,7.6,3,14.8,8.4,20.2   c5.6,5.6,12.9,8.3,20.2,8.3c6.8,0,13.5-2.4,18.9-7.2l20.6,20.6c0.2,0.2,0.5,0.3,0.7,0.3s0.5-0.1,0.7-0.3c0.4-0.4,0.4-1,0-1.4   L64,66.1C74.9,55,74.9,37,63.8,26z M62.4,64.9c-10.3,10.3-27.2,10.3-37.5,0c-5-5-7.8-11.7-7.8-18.8c0-7.1,2.8-13.7,7.8-18.8   s11.7-7.8,18.8-7.8c7.1,0,13.7,2.8,18.8,7.8C72.7,37.7,72.7,54.6,62.4,64.9z"/></g><text x="0" y="115" fill="#000000" font-size="5px" font-weight="bold" font-family="'Helvetica Neue', Helvetica, Arial-Unicode, Arial, Sans-serif">Created by Icon Depot</text><text x="0" y="120" fill="#000000" font-size="5px" font-weight="bold" font-family="'Helvetica Neue', Helvetica, Arial-Unicode, Arial, Sans-serif">from the Noun Project</text></svg>