<?xml version="1.0" encoding="utf-8"?>
<!-- Generator: Adobe Illustrator 22.0.1, SVG Export Plug-In . SVG Version: 6.00 Build 0)  -->
<svg version="1.1" id="Calque_1" xmlns="http://www.w3.org/2000/svg" xmlns:xlink="http://www.w3.org/1999/xlink" x="0px" y="0px"
	 viewBox="0 0 100 125" style="enable-background:new 0 0 100 125;" xml:space="preserve">
<style type="text/css">
	.st0{fill:none;}
	.st1{fill:none;stroke:#000000;stroke-width:2;stroke-miterlimit:10;}
</style>
<polygon class="st0" points="68.6,42.2 68.6,50.7 81,50.7 77.3,42.2 "/>
<path class="st1" d="M5.5,66.8h11l0.1-0.4c1.4-4.2,5.3-7,9.7-7c4.4,0,8.3,2.8,9.7,7l0.1,0.4h24.2V19H5.5V66.8z M11.6,28h21.5v1H11.6
	V28z M11.6,32.6h17v1h-17V32.6z"/>
<path class="st1" d="M88.8,50.8l-6.6-15.3H61.4v31.3h7.3l0.1-0.4c1.4-4.2,5.2-7,9.7-7c4.4,0,8.3,2.8,9.7,7l0.1,0.4h7.3V53.5
	L88.8,50.8z M67.6,51.7V41.1h10.3l4.6,10.6L67.6,51.7L67.6,51.7z"/>
<path class="st1" d="M26.3,60.5c-5,0-9.1,4.1-9.1,9.1s4.1,9.1,9.1,9.1s9.1-4.1,9.1-9.1S31.3,60.5,26.3,60.5z"/>
<path class="st1" d="M78.4,60.5c-5,0-9.1,4.1-9.1,9.1s4.1,9.1,9.1,9.1s9.1-4.1,9.1-9.1S83.4,60.5,78.4,60.5z"/>
</svg>
