<?xml version="1.0" encoding="utf-8"?>
<!-- Generator: Adobe Illustrator 22.0.1, SVG Export Plug-In . SVG Version: 6.00 Build 0)  -->
<svg version="1.1" id="Calque_1" xmlns="http://www.w3.org/2000/svg" xmlns:xlink="http://www.w3.org/1999/xlink" x="0px" y="0px"
	 viewBox="0 0 100 125" style="enable-background:new 0 0 100 125;" xml:space="preserve">
<style type="text/css">
	.st0{fill:none;stroke:#000000;stroke-miterlimit:10;}
</style>
<path d="M69,90c0,0.6-0.4,1-1,1H53c-0.6,0-1-0.4-1-1s0.4-1,1-1h15C68.6,89,69,89.4,69,90z M60,93h-4c-0.6,0-1,0.4-1,1s0.4,1,1,1h4
	c0.6,0,1-0.4,1-1S60.6,93,60,93z M75,84h-4c-0.6,0-1,0.4-1,1s0.4,1,1,1h4c0.6,0,1-0.4,1-1S75.6,84,75,84z M33,88h-4
	c-0.6,0-1,0.4-1,1s0.4,1,1,1h4c0.6,0,1-0.4,1-1S33.6,88,33,88z M44,88h-5c-0.6,0-1,0.4-1,1s0.4,1,1,1h5c0.6,0,1-0.4,1-1
	S44.6,88,44,88z"/>
<path class="st0" d="M37.9,36c-0.2-1.4-0.2-2.9-0.1-4.3c0.2-2.1,1.2-4.5,3.1-7.2c0.3-0.5,0.9-0.6,1.4-0.2c0.5,0.3,0.6,0.9,0.2,1.4
	c-1.7,2.4-2.6,4.4-2.8,6.2c-0.1,1.3-0.1,2.5,0.1,3.8c0.1,0.5-0.3,1.1-0.8,1.1c0,0-0.1,0-0.1,0C38.4,36.9,38,36.5,37.9,36z
	 M51.8,39.5c-0.5,0.2-0.7,0.8-0.4,1.3c1.7,3.5,3.7,7.4,3.4,11.7c-0.2,3.1-1.7,6.3-3.1,9.3c-0.2,0.5,0,1.1,0.4,1.3
	c0.1,0.1,0.3,0.1,0.4,0.1c0.4,0,0.7-0.2,0.9-0.6c1.6-3.2,3.2-6.6,3.4-10c0.3-4.9-1.8-9-3.6-12.7C52.9,39.4,52.3,39.2,51.8,39.5z
	 M47,68.9c0.9,1.6,1.5,3,1.9,4c1-2.2,2.1-4.2,3-5.5c-0.4-1.3-1.1-2.9-2.1-4.6c-1.7-2.4-4.1-4.5-5-5.3c-0.2-0.1-0.4-0.3-0.5-0.4
	c-4-4-3-9.7-1.7-13.3c-1.3-2.8-1.9-4.8-2.3-6c-7.6,12-4.9,18.4,1.4,24.3c0.1,0.1,0.1,0.1,0.2,0.2C42.9,63.1,45.1,65.2,47,68.9z
	 M43.6,43.7c0.1,0.1,0.1,0.2,0.2,0.3c1.4,2.9,2.8,5.6,2.6,8.5c0,1.1-0.5,2.5-1.2,4c0.7,0.6,2.9,2.4,4.7,4.8c1.6-3.1,2.9-6.1,3.1-8.8
	c0.2-3.8-1.5-7.4-3.2-10.8c-1.4-2.9-2.8-5.6-2.8-8.2c0-2.9,2.6-6.3,5.2-9.7c2.5-3.3,4.8-6.4,5.1-9.3c0.2-2.1-0.2-3.7-1.3-4.8
	c-1.6-1.5-3.8-1.3-4-1.3c-0.8,0.1-1.4,0.6-1.7,0.9c-0.7,0.8-0.6,1.9-0.6,2c0.1,0.5,0.6,0.9,1.1,0.9c0.5-0.1,0.9-0.5,0.9-1.1
	c0-0.1,0-0.4,0.1-0.5c0.1-0.1,0.2-0.1,0.3-0.1c0.3,0,0.7,0.2,0.9,0.6c0.5,0.8,0.5,2.2-0.2,3.5c-0.3,0.7-1.1,1.6-2.1,2.8l0,0
	l-7.3,8.5C42,28,40.8,30.1,40.6,32c-0.1,1.4,0,3,0.2,4h0C40.8,36,41.2,38.3,43.6,43.7z M47.2,9.4c-1.5-2.5-3.8-4.2-6.2-4.8
	c-0.5-0.1-1.1,0.1-1.4,0.6s-0.2,1.1,0.1,1.5c5.2,6.3,5.3,13.2,4.9,16.4l4.7-5.4C49.3,14.6,48.6,11.7,47.2,9.4z M61.9,51.5
	c0.1-0.5-0.2-1-0.6-1.2c-0.4-0.2-1-0.1-1.3,0.2c-2,2.1-2.8,4.9-2.5,8.6c1.3-1.7,3.4-4.7,4.4-7.5C61.9,51.7,61.9,51.6,61.9,51.5z
	 M68,84h-2.2c3.2-4.7,2.7-12.2-1.6-19.2c-0.1-0.2-0.2-0.4-0.4-0.6c-1.5,2.4-2.7,4.8-3.3,6c0.1,0.2,0.2,0.4,0.3,0.7
	c0.9,2.2,1.6,4.1,1.8,5.3C63,79.3,61,82.6,60,84h-1.3c-0.9-1.6-2.1-5-0.7-10.4c0.3-1.1,0.8-2.3,1.5-3.5c0.5-1.3,2-4.3,4-7.2
	c1.7-3.1,3.2-6.5,3.9-10.1c0.7-3.8,0.3-6.6-1.3-8.5c-0.9-1.1-2.1-2-3.8-2.2c-1.6-0.1-3,0.9-3.1,2.5c0,0.9,0.4,2,1.3,2.2
	c0.5,0.1,1.1-0.2,1.2-0.7c0.1-0.4-0.1-0.9-0.5-1.1c-0.1,0-0.1-0.4,0-0.5c0-0.2,0.2-0.3,0.3-0.3c0.2-0.1,0.4,0,0.6,0
	c1.5,0.3,1.7,2.6,1.7,3.9c0,0.9-0.2,1.8-0.4,2.6c-0.2,0.7-0.6,1.6-1.2,2.7c-1.5,3.2-3.8,6.2-4.8,7.5c-0.4,0.6-0.9,1.3-1.3,1.9
	c-0.9,1.3-1.7,2.5-2.5,3.7l0,0c0,0-3,4.3-4.6,8.5c-0.6,1.9-0.8,3.6-0.9,4.9c-1-1.3-1.9-3-2.4-5.1c-0.4-1.6-0.2-3.3,0.3-5.2
	c-1.5-3.3-3.5-5.2-4.6-6.2c-1.8,3.6-3.4,7.1-3.3,10.1c0.2,4.6,2.4,8.2,5,10.5h-2.5c-0.4-1.2-1.5-3.1-4.2-5.8
	c-3.6-3.6-4.1-6.5-1.7-10.2c2.5-3.9,2.6-9,0.2-12.1c-0.3-0.4-0.9-0.6-1.3-0.4c-0.5,0.2-0.8,0.7-0.8,1.2c0.2,3.7-0.8,7.3-2.7,10.1
	c-3.7,5.1-3.5,9.8,0.4,12.8c3,2.3,3.6,3.6,3.7,4.3c0,0.1,0,0.1,0,0.2H31c-0.5,0-1,0.4-1,1s0.5,1,1,1h37c0.6,0,1-0.4,1-1
	S68.6,84,68,84z"/>
<path d="M70.5,66.8c-0.9,0-1.6-0.7-1.6-1.6s0.7-1.6,1.6-1.6s1.6,0.7,1.6,1.6C72.2,66,71.4,66.8,70.5,66.8z M27.1,29.2
	c0-1.3,1.1-2.3,2.3-2.3c1.3,0,2.3,1.1,2.3,2.3s-1.1,2.3-2.3,2.3C28.1,31.6,27.1,30.5,27.1,29.2z M68.1,19.2c0-1.3,1.1-2.3,2.3-2.3
	c1.3,0,2.3,1.1,2.3,2.3s-1.1,2.3-2.3,2.3C69.1,21.6,68.1,20.5,68.1,19.2z M73.1,42.2c0-1.3,1.1-2.3,2.3-2.3c1.3,0,2.3,1.1,2.3,2.3
	s-1.1,2.3-2.3,2.3C74.1,44.6,73.1,43.5,73.1,42.2z M26.4,62.6c-1.3,0-2.3-1.1-2.3-2.3c0-1.3,1.1-2.3,2.3-2.3c1.3,0,2.3,1.1,2.3,2.3
	C28.8,61.5,27.7,62.6,26.4,62.6z M64.6,26.9c0,2-1.6,3.6-3.6,3.6s-3.6-1.6-3.6-3.6s1.6-3.6,3.6-3.6S64.6,24.9,64.6,26.9z M63.3,25.6
	c0-0.8-0.6-1.4-1.4-1.4s-1.4,0.6-1.4,1.4S61,27,61.8,27S63.3,26.4,63.3,25.6z M22.1,37.2c-0.2,0.5-0.7,0.8-1.3,0.8
	c-0.8,0-1.4-0.6-1.4-1.4c0-0.2,0.1-0.5,0.2-0.7c-1.6,0.1-2.9,1.4-2.9,3c0,1.7,1.4,3,3,3s3-1.3,3-3C22.7,38.2,22.5,37.7,22.1,37.2z
	 M80.6,54c0,1.7-1.4,3.1-3.1,3.1s-3.1-1.4-3.1-3.1s1.4-3.1,3.1-3.1S80.6,52.3,80.6,54z M78.6,53c0-0.6-0.5-1-1-1c-0.6,0-1,0.5-1,1
	s0.5,1,1,1C78.1,54,78.6,53.5,78.6,53z"/>
</svg>
