<?xml version="1.0" encoding="utf-8"?>
<!-- Generator: Adobe Illustrator 22.0.1, SVG Export Plug-In . SVG Version: 6.00 Build 0)  -->
<svg version="1.1" id="Calque_1" xmlns="http://www.w3.org/2000/svg" xmlns:xlink="http://www.w3.org/1999/xlink" x="0px" y="0px"
	 viewBox="0 0 100 125" style="enable-background:new 0 0 100 125;" xml:space="preserve">
<style type="text/css">
	.st0{stroke:#000000;stroke-width:0.5;stroke-miterlimit:10;}
	.st1{fill:none;stroke:#000000;stroke-miterlimit:10;}
</style>
<path class="st0" d="M60.5,40.4L49,49.5l-7-5v11.2l7-5.5l11.6,8.4l11.5-8.8L60.5,40.4z M42.6,54.7v-9.2l6,4.4L42.6,54.7z M60.6,57.9
	l-11.1-8L60.5,41l10.7,8.7L60.6,57.9z"/>
<path class="st1" d="M30,64.3c17,0,34,0,51,0c-2-9.9-4.1-19.8-6.1-29.7c-13,0-26,0-38.9,0C34,44.5,32,54.4,30,64.3z"/>
<line class="st1" x1="42.4" y1="37.4" x2="45.7" y2="21"/>
<line class="st1" x1="68.6" y1="37.4" x2="65.3" y2="20.9"/>
<line class="st1" x1="45.4" y1="21.2" x2="65.6" y2="21.1"/>
</svg>
