<?xml version="1.0" encoding="utf-8"?>
<!-- Generator: Adobe Illustrator 22.0.1, SVG Export Plug-In . SVG Version: 6.00 Build 0)  -->
<svg version="1.1" xmlns="http://www.w3.org/2000/svg" xmlns:xlink="http://www.w3.org/1999/xlink" x="0px" y="0px"
	 viewBox="0 0 100 125" style="enable-background:new 0 0 100 125;" xml:space="preserve">
<style type="text/css">
	.st0{display:none;}
	.st1{display:inline;stroke:#FFFFFF;stroke-miterlimit:10;}
	.st2{display:inline;stroke:#000000;stroke-width:0.5;stroke-miterlimit:10;}
	.st3{display:inline;fill:#FFFFFF;}
	.st4{display:inline;fill:none;stroke:#FFFFFF;stroke-miterlimit:10;}
	.st5{display:inline;fill:none;stroke:#FFFFFF;stroke-width:0.5;stroke-miterlimit:10;}
	.st6{display:inline;fill:#FFFFFF;stroke:#FFFFFF;stroke-width:0.5;stroke-miterlimit:10;}
	.st7{fill:none;stroke:#FFFFFF;stroke-width:0.5;stroke-miterlimit:10;}
	.st8{fill:#FFFFFF;stroke:#FFFFFF;stroke-width:0.5;stroke-miterlimit:10;}
	.st9{fill:none;stroke:#000000;stroke-width:0.25;stroke-miterlimit:10;}
</style>
<g id="Calque_2" class="st0">
	<rect y="-9" class="st1" width="109" height="147"/>
</g>
<g id="Calque_1">
	<g id="Calque_4" class="st0">
		<rect x="-17" y="-10.3" class="st2" width="137.5" height="151"/>
	</g>
	<g id="Calque_1_1_" class="st0">
		<path class="st3" d="M65,42.9L50.2,62.6L32.3,40.9c-0.2,0.3-0.4,0.7-0.6,1l17.8,21.5c0.4,0,0.9,0,1.4,0l15.1-20
			C66,42.9,65.8,42.9,65,42.9z"/>
		<path class="st3" d="M49.8,14.4c0.7,0,1.3,0.1,1.8,0.3l-1.5-2l-1.5,1.8C48.9,14.5,49.3,14.4,49.8,14.4z"/>
		<line class="st4" x1="49.8" y1="62.4" x2="34.9" y2="107.5"/>
		<line class="st4" x1="49.9" y1="63.2" x2="45.6" y2="111.2"/>
		<line class="st4" x1="50.5" y1="63.2" x2="54.8" y2="110.4"/>
		<line class="st4" x1="50.8" y1="63.3" x2="66" y2="106.6"/>
		<line class="st4" x1="50" y1="13.8" x2="24.9" y2="32.5"/>
		<line class="st4" x1="50" y1="13.8" x2="74.5" y2="32.6"/>
		<line class="st4" x1="25" y1="32.2" x2="21.9" y2="42.2"/>
		<line class="st4" x1="74.3" y1="32.4" x2="78.9" y2="42.3"/>
		<line class="st4" x1="22" y1="41.9" x2="26.9" y2="38.4"/>
		<line class="st4" x1="31.3" y1="42.6" x2="26.3" y2="38.4"/>
		<line class="st4" x1="30.8" y1="42.7" x2="35.9" y2="38.9"/>
		<line class="st4" x1="40.2" y1="43" x2="35.3" y2="38.8"/>
		<line class="st4" x1="39.6" y1="43" x2="44.7" y2="39.2"/>
		<line class="st4" x1="49" y1="43.4" x2="44.1" y2="39.2"/>
		<line class="st4" x1="48.3" y1="43.3" x2="53.5" y2="39.5"/>
		<line class="st4" x1="57.8" y1="43.7" x2="52.9" y2="39.6"/>
		<line class="st4" x1="57.2" y1="43.7" x2="62.3" y2="40"/>
		<line class="st4" x1="66.6" y1="44.1" x2="61.7" y2="39.9"/>
		<line class="st4" x1="65.9" y1="44.1" x2="71.1" y2="40.3"/>
		<line class="st4" x1="75.4" y1="44.5" x2="70.5" y2="40.3"/>
		<line class="st4" x1="74.8" y1="44.5" x2="78.5" y2="41.9"/>
	</g>
	<g id="Calque_2_1_" class="st0">
		<rect x="15.3" y="49.1" class="st5" width="65.5" height="33.1"/>
		<rect x="18" y="84.2" class="st6" width="10.8" height="4.8"/>
		<rect x="67.5" y="84.2" class="st6" width="10.8" height="4.8"/>
		<line class="st5" x1="13.2" y1="84.2" x2="83.4" y2="84.2"/>
		<line class="st5" x1="13.2" y1="84.5" x2="13.2" y2="44.1"/>
		<line class="st5" x1="83.1" y1="84.2" x2="83.1" y2="44.1"/>
		<path class="st3" d="M64.4,64.4l-4.7,2.7l0.5-5.7c-0.1,0-0.1,0-0.2,0l-0.6,5.8l0.2,0.1L64.4,64.4C64.5,64.5,64.4,64.5,64.4,64.4z"
			/>
		<line class="st5" x1="59.6" y1="67" x2="51.3" y2="73.8"/>
		<line class="st5" x1="59.6" y1="67.1" x2="52.7" y2="75.7"/>
		<line class="st5" x1="59.7" y1="67.2" x2="54.5" y2="76.6"/>
		<line class="st5" x1="59.7" y1="67.3" x2="56.9" y2="77.2"/>
		<line class="st5" x1="65.8" y1="58" x2="58.7" y2="58.3"/>
		<line class="st5" x1="65.7" y1="57.9" x2="67.9" y2="64.6"/>
		<line class="st5" x1="58.7" y1="58.3" x2="56.7" y2="59.9"/>
		<line class="st5" x1="67.9" y1="64.5" x2="67.5" y2="67.1"/>
		<path class="st5" d="M56.7,59.9c0.6-0.1,1.3-0.2,1.9-0.3c0.2,0.6,0.4,1.3,0.6,1.9c0.7-0.1,1.4-0.1,2.1-0.2c0.2,0.7,0.5,1.4,0.7,2
			c0.7-0.1,1.4-0.1,2.1-0.2c0.2,0.7,0.4,1.3,0.7,2c0.7-0.1,1.4-0.1,2.1-0.2c0.2,0.7,0.4,1.3,0.7,2"/>
		<path class="st3" d="M36.2,64.2L33,67l-0.4-4.4c-0.1,0-0.1,0-0.2,0l0.5,4.5l0.2,0.1l3.3-2.9C36.2,64.3,36.2,64.3,36.2,64.2z"/>
		<line class="st5" x1="32.9" y1="66.9" x2="27.6" y2="73.3"/>
		<line class="st5" x1="32.9" y1="67" x2="29" y2="74.6"/>
		<line class="st5" x1="33" y1="67.1" x2="30.5" y2="75"/>
		<line class="st5" x1="33" y1="67.1" x2="32.4" y2="75.1"/>
		<line class="st5" x1="36.2" y1="59.1" x2="30.9" y2="60.4"/>
		<line class="st5" x1="36.2" y1="59.1" x2="38.9" y2="63.8"/>
		<line class="st5" x1="30.9" y1="60.4" x2="29.6" y2="61.9"/>
		<line class="st5" x1="38.9" y1="63.7" x2="38.9" y2="65.8"/>
		<path class="st5" d="M29.6,61.9c0.5-0.2,1-0.3,1.4-0.5c0.2,0.5,0.5,0.9,0.7,1.4c0.5-0.1,1-0.3,1.6-0.4c0.3,0.5,0.6,1,0.8,1.4
			c0.5-0.2,1-0.3,1.5-0.5c0.3,0.5,0.5,1,0.8,1.4c0.5-0.1,1-0.3,1.5-0.4c0.3,0.5,0.5,1,0.8,1.4"/>
	</g>
	<g id="Calque_3">
		<rect x="1.9" y="40.4" class="st7" width="95.3" height="47"/>
		<rect x="7" y="88.7" class="st8" width="15.3" height="6.8"/>
		<rect x="77.3" y="88.7" class="st8" width="15.3" height="6.8"/>
		<line class="st7" x1="0.2" y1="88.7" x2="99.8" y2="88.7"/>
		<line class="st7" x1="0.2" y1="89" x2="0.2" y2="31.7"/>
		<line class="st7" x1="99.4" y1="88.7" x2="99.4" y2="39.7"/>
		<path class="st8" d="M70.1,0.5c9.2,11.1,18.3,22,27.6,33.1c-1.4,1-3,2-4.4,3C84,25.6,74.8,14.7,65.6,3.8C67,2.8,68.5,1.6,70.1,0.5
			z"/>
		<path class="st8" d="M74.9,38.6"/>
		<path class="st8" d="M98.6,34.3"/>
		<path class="st7" d="M97.9,33.9c0.4,2,0.9,3.8,1.3,5.8c-2-0.9-4-1.8-5.8-2.7"/>
		<line class="st9" x1="69.2" y1="2.1" x2="96.1" y2="34"/>
		<line class="st9" x1="67.3" y1="3.3" x2="94.1" y2="35.4"/>
		<line class="st9" x1="68.1" y1="2.5" x2="95" y2="34.6"/>
	</g>
</g>
</svg>
