<?xml version="1.0" encoding="utf-8"?>
<!-- Generator: Adobe Illustrator 22.0.1, SVG Export Plug-In . SVG Version: 6.00 Build 0)  -->
<svg version="1.1" id="Calque_1" xmlns="http://www.w3.org/2000/svg" xmlns:xlink="http://www.w3.org/1999/xlink" x="0px" y="0px"
	 viewBox="0 0 100 125" style="enable-background:new 0 0 100 125;" xml:space="preserve">
<style type="text/css">
	.st0{fill:#FFFFFF;}
	.st1{fill:none;stroke:#FFFFFF;stroke-miterlimit:10;}
	.st2{fill:#FFFFFF;stroke:#FFFFFF;stroke-miterlimit:10;}
</style>
<path class="st0" d="M64.2,34.8L50.5,62.6L35.2,34.1c-0.3,0.1-0.7,0.4-1,0.6l15.7,29.1h1.3l14.1-28.6C64.9,35.1,64.5,35,64.2,34.8z"
	/>
<line class="st1" x1="49.8" y1="62.7" x2="32" y2="120.3"/>
<line class="st1" x1="49.9" y1="63.5" x2="44.7" y2="125"/>
<line class="st1" x1="50.7" y1="63.5" x2="55.9" y2="124"/>
<line class="st2" x1="51" y1="63.6" x2="69.2" y2="119.2"/>
<line class="st1" x1="50.1" y1="0" x2="17.6" y2="24.2"/>
<line class="st1" x1="49.6" y1="0" x2="81.2" y2="24.3"/>
<line class="st1" x1="17.9" y1="23.9" x2="13.4" y2="37.7"/>
<line class="st1" x1="81.1" y1="24" x2="87.3" y2="37.7"/>
<path class="st1" d="M13.4,37.7c2.8-2.5,5.6-4.9,8.3-7.4c3,2.5,5.9,4.9,8.9,7.4c3.1-2.5,6.2-4.9,9.3-7.4c3.3,2.5,6.5,4.9,9.8,7.4
	c3.1-2.5,6.1-4.9,9.2-7.4c3.1,2.5,6.4,4.9,9.5,7.4c3.1-2.5,6.1-4.9,9.2-7.4c3.1,2.5,6.4,4.9,9.5,7.4"/>
</svg>
