<?xml version="1.0" encoding="utf-8"?>
<!-- Generator: Adobe Illustrator 22.0.1, SVG Export Plug-In . SVG Version: 6.00 Build 0)  -->
<svg version="1.1" xmlns="http://www.w3.org/2000/svg" xmlns:xlink="http://www.w3.org/1999/xlink" x="0px" y="0px"
	 viewBox="0 0 100 125" style="enable-background:new 0 0 100 125;" xml:space="preserve">
<style type="text/css">
	.st0{display:none;}
	.st1{display:inline;stroke:#FFFFFF;stroke-miterlimit:10;}
	.st2{display:inline;stroke:#000000;stroke-width:0.5;stroke-miterlimit:10;}
	.st3{display:inline;fill:#FFFFFF;}
	.st4{display:inline;fill:none;stroke:#FFFFFF;stroke-miterlimit:10;}
	.st5{display:inline;fill:none;stroke:#FFFFFF;stroke-width:0.5;stroke-miterlimit:10;}
	.st6{display:inline;fill:#FFFFFF;stroke:#FFFFFF;stroke-width:0.5;stroke-miterlimit:10;}
	.st7{display:inline;}
	.st8{fill:none;stroke:#FFFFFF;stroke-width:0.5;stroke-miterlimit:10;}
	.st9{fill:#FFFFFF;stroke:#FFFFFF;stroke-width:0.5;stroke-miterlimit:10;}
	.st10{fill:none;stroke:#000000;stroke-width:0.25;stroke-miterlimit:10;}
	.st11{fill:#DDA01E;}
	.st12{fill:none;stroke:#DDA01E;stroke-miterlimit:10;}
	.st13{fill:#FFFFFF;}
</style>
<g id="Calque_2" class="st0">
	<rect x="0.2" y="-9" class="st1" width="100" height="147"/>
</g>
<g id="Calque_1" class="st0">
	<g id="Calque_4">
		<rect x="-17" y="-10.3" class="st2" width="137.5" height="151"/>
	</g>
	<g id="Calque_1_1_">
		<path class="st3" d="M65,42.9L50.2,62.6L32.3,40.9c-0.2,0.3-0.4,0.7-0.6,1l17.8,21.5c0.4,0,0.9,0,1.4,0l15.1-20
			C66,42.9,65.8,42.9,65,42.9z"/>
		<path class="st3" d="M49.8,14.4c0.7,0,1.3,0.1,1.8,0.3l-1.5-2l-1.5,1.8C48.9,14.5,49.3,14.4,49.8,14.4z"/>
		<line class="st4" x1="49.8" y1="62.4" x2="34.9" y2="107.5"/>
		<line class="st4" x1="49.9" y1="63.2" x2="45.6" y2="111.2"/>
		<line class="st4" x1="50.5" y1="63.2" x2="54.8" y2="110.4"/>
		<line class="st4" x1="50.8" y1="63.3" x2="66" y2="106.6"/>
		<line class="st4" x1="50" y1="13.8" x2="24.9" y2="32.5"/>
		<line class="st4" x1="50" y1="13.8" x2="74.5" y2="32.6"/>
		<line class="st4" x1="25" y1="32.2" x2="21.9" y2="42.2"/>
		<line class="st4" x1="74.3" y1="32.4" x2="78.9" y2="42.3"/>
		<line class="st4" x1="22" y1="41.9" x2="26.9" y2="38.4"/>
		<line class="st4" x1="31.3" y1="42.6" x2="26.3" y2="38.4"/>
		<line class="st4" x1="30.8" y1="42.7" x2="35.9" y2="38.9"/>
		<line class="st4" x1="40.2" y1="43" x2="35.3" y2="38.8"/>
		<line class="st4" x1="39.6" y1="43" x2="44.7" y2="39.2"/>
		<line class="st4" x1="49" y1="43.4" x2="44.1" y2="39.2"/>
		<line class="st4" x1="48.3" y1="43.3" x2="53.5" y2="39.5"/>
		<line class="st4" x1="57.8" y1="43.7" x2="52.9" y2="39.6"/>
		<line class="st4" x1="57.2" y1="43.7" x2="62.3" y2="40"/>
		<line class="st4" x1="66.6" y1="44.1" x2="61.7" y2="39.9"/>
		<line class="st4" x1="65.9" y1="44.1" x2="71.1" y2="40.3"/>
		<line class="st4" x1="75.4" y1="44.5" x2="70.5" y2="40.3"/>
		<line class="st4" x1="74.8" y1="44.5" x2="78.5" y2="41.9"/>
	</g>
	<g id="Calque_2_1_">
		<rect x="15.3" y="49.1" class="st5" width="65.5" height="33.1"/>
		<rect x="18" y="84.2" class="st6" width="10.8" height="4.8"/>
		<rect x="67.5" y="84.2" class="st6" width="10.8" height="4.8"/>
		<line class="st5" x1="13.2" y1="84.2" x2="83.4" y2="84.2"/>
		<line class="st5" x1="13.2" y1="84.5" x2="13.2" y2="44.1"/>
		<line class="st5" x1="83.1" y1="84.2" x2="83.1" y2="44.1"/>
		<path class="st3" d="M64.4,64.4l-4.7,2.7l0.5-5.7c-0.1,0-0.1,0-0.2,0l-0.6,5.8l0.2,0.1L64.4,64.4C64.5,64.5,64.4,64.5,64.4,64.4z"
			/>
		<line class="st5" x1="59.6" y1="67" x2="51.3" y2="73.8"/>
		<line class="st5" x1="59.6" y1="67.1" x2="52.7" y2="75.7"/>
		<line class="st5" x1="59.7" y1="67.2" x2="54.5" y2="76.6"/>
		<line class="st5" x1="59.7" y1="67.3" x2="56.9" y2="77.2"/>
		<line class="st5" x1="65.8" y1="58" x2="58.7" y2="58.3"/>
		<line class="st5" x1="65.7" y1="57.9" x2="67.9" y2="64.6"/>
		<line class="st5" x1="58.7" y1="58.3" x2="56.7" y2="59.9"/>
		<line class="st5" x1="67.9" y1="64.5" x2="67.5" y2="67.1"/>
		<path class="st5" d="M56.7,59.9c0.6-0.1,1.3-0.2,1.9-0.3c0.2,0.6,0.4,1.3,0.6,1.9c0.7-0.1,1.4-0.1,2.1-0.2c0.2,0.7,0.5,1.4,0.7,2
			c0.7-0.1,1.4-0.1,2.1-0.2c0.2,0.7,0.4,1.3,0.7,2c0.7-0.1,1.4-0.1,2.1-0.2c0.2,0.7,0.4,1.3,0.7,2"/>
		<path class="st3" d="M36.2,64.2L33,67l-0.4-4.4c-0.1,0-0.1,0-0.2,0l0.5,4.5l0.2,0.1l3.3-2.9C36.2,64.3,36.2,64.3,36.2,64.2z"/>
		<line class="st5" x1="32.9" y1="66.9" x2="27.6" y2="73.3"/>
		<line class="st5" x1="32.9" y1="67" x2="29" y2="74.6"/>
		<line class="st5" x1="33" y1="67.1" x2="30.5" y2="75"/>
		<line class="st5" x1="33" y1="67.1" x2="32.4" y2="75.1"/>
		<line class="st5" x1="36.2" y1="59.1" x2="30.9" y2="60.4"/>
		<line class="st5" x1="36.2" y1="59.1" x2="38.9" y2="63.8"/>
		<line class="st5" x1="30.9" y1="60.4" x2="29.6" y2="61.9"/>
		<line class="st5" x1="38.9" y1="63.7" x2="38.9" y2="65.8"/>
		<path class="st5" d="M29.6,61.9c0.5-0.2,1-0.3,1.4-0.5c0.2,0.5,0.5,0.9,0.7,1.4c0.5-0.1,1-0.3,1.6-0.4c0.3,0.5,0.6,1,0.8,1.4
			c0.5-0.2,1-0.3,1.5-0.5c0.3,0.5,0.5,1,0.8,1.4c0.5-0.1,1-0.3,1.5-0.4c0.3,0.5,0.5,1,0.8,1.4"/>
	</g>
	<g id="Calque_3" class="st7">
		<rect x="2.6" y="41.5" class="st8" width="94.4" height="46.6"/>
		<rect x="7.7" y="89.3" class="st9" width="15.2" height="6.8"/>
		<rect x="77.3" y="89.3" class="st9" width="15.2" height="6.8"/>
		<line class="st8" x1="0.9" y1="89.3" x2="99.6" y2="89.3"/>
		<line class="st8" x1="0.9" y1="89.6" x2="0.9" y2="32.9"/>
		<line class="st8" x1="99.2" y1="89.3" x2="99.2" y2="34.4"/>
		<path class="st9" d="M93.1,37.7"/>
		<path class="st9" d="M74.9,39.7"/>
		<path class="st8" d="M93.2,38.1"/>
		<path class="st8" d="M99,40.8"/>
		<path class="st10" d="M93.9,36.6"/>
	</g>
	<path id="Tracé_81_1_" class="st3" d="M81.3,58.5l-8.5,4.9L73.7,53h-0.4l-1.1,10.6l0.4,0.2l8.7-5.1C81.5,58.7,81.3,58.7,81.3,58.5
		z"/>
	<line id="Ligne_76_1_" class="st5" x1="72.6" y1="63.3" x2="57.6" y2="75.7"/>
	<line id="Ligne_77_1_" class="st5" x1="72.6" y1="63.4" x2="60.1" y2="79.1"/>
	<line id="Ligne_78_1_" class="st5" x1="72.8" y1="63.6" x2="63.4" y2="80.8"/>
	<line id="Ligne_79_1_" class="st5" x1="72.8" y1="63.8" x2="67.7" y2="81.9"/>
	<line id="Ligne_80_1_" class="st5" x1="83.9" y1="46.8" x2="71" y2="47.4"/>
	<line id="Ligne_81_1_" class="st5" x1="83.7" y1="46.7" x2="87.7" y2="58.9"/>
	<line id="Ligne_82_1_" class="st5" x1="71" y1="47.4" x2="67.4" y2="50.3"/>
	<line id="Ligne_83_1_" class="st5" x1="87.7" y1="58.7" x2="87" y2="63.4"/>
	<path id="Tracé_82_1_" class="st5" d="M67.4,50.3c1.1-0.2,2.4-0.4,3.4-0.5c0.4,1.1,0.7,2.4,1.1,3.5c1.3-0.2,2.5-0.2,3.8-0.4
		c0.4,1.3,0.9,2.6,1.3,3.6c1.3-0.2,2.5-0.2,3.8-0.4c0.3,1.2,0.8,2.5,1.3,3.6c1.3-0.2,2.5-0.2,3.8-0.4c0.3,1.2,0.8,2.5,1.3,3.6"/>
	<path id="Tracé_83_1_" class="st3" d="M30.2,58.1l-5.8,5.1l-0.7-8h-0.4l0.9,8.2l0.4,0.2l6-5.3C30.2,58.3,30.2,58.3,30.2,58.1z"/>
	<line id="Ligne_84_1_" class="st5" x1="24.2" y1="63.1" x2="14.6" y2="74.7"/>
	<line id="Ligne_85_1_" class="st5" x1="24.2" y1="63.3" x2="17.1" y2="77.1"/>
	<line id="Ligne_86_1_" class="st5" x1="24.4" y1="63.4" x2="19.8" y2="77.8"/>
	<line id="Ligne_87_1_" class="st5" x1="24.4" y1="63.4" x2="23.3" y2="78"/>
	<line id="Ligne_88_1_" class="st5" x1="30.2" y1="48.8" x2="20.6" y2="51.2"/>
	<line id="Ligne_89_1_" class="st5" x1="30.2" y1="48.8" x2="35.1" y2="57.4"/>
	<line id="Ligne_90_1_" class="st5" x1="20.6" y1="51.2" x2="18.2" y2="53.9"/>
	<line id="Ligne_91_1_" class="st5" x1="35.1" y1="57.2" x2="35.1" y2="61.1"/>
	<path id="Tracé_84_1_" class="st5" d="M18.2,53.9c0.9-0.4,1.8-0.5,2.5-0.9c0.4,0.9,0.9,1.6,1.3,2.6c0.9-0.2,1.8-0.5,2.9-0.7
		c0.5,0.9,1.1,1.8,1.5,2.6c0.9-0.4,1.8-0.5,2.7-0.9c0.5,0.9,0.9,1.8,1.5,2.6c0.9-0.2,1.8-0.5,2.7-0.7c0.5,0.9,0.9,1.8,1.5,2.6"/>
</g>
<g id="Calque_4_1_">
	<g id="meduse_triangle" transform="translate(1417.598 5263.377)">
		<path id="Tracé_75" class="st11" d="M-1354.1-5227.7l-13.3,27.1l-14.9-27.8c-0.3,0.1-0.7,0.4-1,0.6l15.4,28.4h1.3l13.8-28
			C-1353.4-5227.4-1353.8-5227.5-1354.1-5227.7z"/>
		<line id="Ligne_59" class="st12" x1="-1368.2" y1="-5200.4" x2="-1385.6" y2="-5144.2"/>
		<line id="Ligne_60" class="st12" x1="-1368" y1="-5199.7" x2="-1373.1" y2="-5139.6"/>
		<line id="Ligne_61" class="st12" x1="-1367.3" y1="-5199.7" x2="-1362.2" y2="-5140.6"/>
		<line id="Ligne_62" class="st12" x1="-1367" y1="-5199.6" x2="-1349.2" y2="-5145.2"/>
		<line id="Ligne_63" class="st12" x1="-1367.9" y1="-5261.8" x2="-1399.6" y2="-5238.1"/>
		<line id="Ligne_64" class="st12" x1="-1368.3" y1="-5261.8" x2="-1337.5" y2="-5238"/>
		<line id="Ligne_65" class="st12" x1="-1399.3" y1="-5238.4" x2="-1403.7" y2="-5224.9"/>
		<line id="Ligne_66" class="st12" x1="-1337.6" y1="-5238.3" x2="-1331.5" y2="-5224.9"/>
		<path id="Tracé_76" class="st12" d="M-1403.7-5224.9c2.8-2.5,5.5-4.8,8.1-7.2c2.9,2.5,5.8,4.8,8.7,7.2c3-2.5,6.1-4.8,9.1-7.2
			c3.2,2.5,6.4,4.8,9.6,7.2c3-2.5,5.9-4.8,9-7.2c3,2.5,6.2,4.8,9.3,7.2c3-2.5,5.9-4.8,9-7.2c3,2.5,6.2,4.8,9.3,7.2"/>
	</g>
</g>
<g id="Calque_3_1_" class="st0">
	<g id="AQUARIUM_CREAT" transform="translate(842.703 1272.763)" class="st7">
		<rect id="Rectangle_10" x="-839.2" y="-1265.7" class="st8" width="92.5" height="47"/>
		<rect id="Rectangle_11" x="-835.4" y="-1215.9" class="st9" width="15.3" height="6.8"/>
		<rect id="Rectangle_12" x="-765.5" y="-1215.9" class="st9" width="15.3" height="6.8"/>
		<line id="Ligne_73" class="st8" x1="-842.2" y1="-1215.9" x2="-743.1" y2="-1215.9"/>
		<line id="Ligne_74" class="st8" x1="-842.2" y1="-1215.4" x2="-842.2" y2="-1272.8"/>
		<line id="Ligne_75" class="st8" x1="-743.5" y1="-1215.9" x2="-743.5" y2="-1272.8"/>
		<path id="Tracé_81" class="st13" d="M-769.9-1244l-6.6,3.8l0.7-8.1h-0.3l-0.8,8.2l0.3,0.1l6.8-4
			C-769.7-1243.8-769.9-1243.8-769.9-1244z"/>
		<line id="Ligne_76" class="st8" x1="-776.7" y1="-1240.3" x2="-788.4" y2="-1230.6"/>
		<line id="Ligne_77" class="st8" x1="-776.7" y1="-1240.1" x2="-786.4" y2="-1227.9"/>
		<line id="Ligne_78" class="st8" x1="-776.5" y1="-1240" x2="-783.9" y2="-1226.6"/>
		<line id="Ligne_79" class="st8" x1="-776.5" y1="-1239.9" x2="-780.5" y2="-1225.8"/>
		<line id="Ligne_80" class="st8" x1="-767.9" y1="-1253.1" x2="-777.9" y2="-1252.6"/>
		<line id="Ligne_81" class="st8" x1="-768.1" y1="-1253.2" x2="-764.9" y2="-1243.7"/>
		<line id="Ligne_82" class="st8" x1="-777.9" y1="-1252.6" x2="-780.8" y2="-1250.4"/>
		<line id="Ligne_83" class="st8" x1="-764.9" y1="-1243.8" x2="-765.5" y2="-1240.1"/>
		<path id="Tracé_82" class="st8" d="M-780.8-1250.4c0.8-0.1,1.8-0.3,2.7-0.4c0.3,0.9,0.6,1.8,0.8,2.7c1-0.1,2-0.1,3-0.3
			c0.3,1,0.7,2,1,2.8c1-0.1,2-0.1,3-0.3c0.3,1,0.6,1.9,1,2.8c1-0.1,2-0.1,3-0.3c0.3,1,0.6,1.9,1,2.8"/>
		<path id="Tracé_83" class="st13" d="M-809.7-1244.3l-4.5,4l-0.6-6.2h-0.3l0.7,6.4l0.3,0.1l4.7-4.1
			C-809.7-1244.1-809.7-1244.1-809.7-1244.3z"/>
		<line id="Ligne_84" class="st8" x1="-814.4" y1="-1240.4" x2="-821.9" y2="-1231.3"/>
		<line id="Ligne_85" class="st8" x1="-814.4" y1="-1240.3" x2="-819.9" y2="-1229.5"/>
		<line id="Ligne_86" class="st8" x1="-814.2" y1="-1240.1" x2="-817.8" y2="-1228.9"/>
		<line id="Ligne_87" class="st8" x1="-814.2" y1="-1240.1" x2="-815.1" y2="-1228.8"/>
		<line id="Ligne_88" class="st8" x1="-809.7" y1="-1251.5" x2="-817.2" y2="-1249.6"/>
		<line id="Ligne_89" class="st8" x1="-809.7" y1="-1251.5" x2="-805.9" y2="-1244.8"/>
		<line id="Ligne_90" class="st8" x1="-817.2" y1="-1249.6" x2="-819" y2="-1247.5"/>
		<line id="Ligne_91" class="st8" x1="-805.9" y1="-1245" x2="-805.9" y2="-1242"/>
		<path id="Tracé_84" class="st8" d="M-819-1247.5c0.7-0.3,1.4-0.4,2-0.7c0.3,0.7,0.7,1.3,1,2c0.7-0.1,1.4-0.4,2.3-0.6
			c0.4,0.7,0.8,1.4,1.1,2c0.7-0.3,1.4-0.4,2.1-0.7c0.4,0.7,0.7,1.4,1.1,2c0.7-0.1,1.4-0.4,2.1-0.6c0.4,0.7,0.7,1.4,1.1,2"/>
	</g>
</g>
</svg>
